SplineFontDB: 3.2
FontName: FelidarFR
FullName: FelidarFR
FamilyName: FelidarFR
Weight: Medium
Copyright: CorentinVIALAR
Version: 001.000
ItalicAngle: 0
UnderlinePosition: -152
UnderlineWidth: 50
Ascent: 768
Descent: 256
InvalidEm: 0
sfntRevision: 0x00010000
LayerCount: 2
Layer: 0 1 "Back" 1
Layer: 1 1 "Fore" 0
XUID: [1021 363 -375052022 22521]
StyleMap: 0x0040
FSType: 8
OS2Version: 1
OS2_WeightWidthSlopeOnly: 0
OS2_UseTypoMetrics: 0
CreationTime: 1280473793
ModificationTime: 1605798246
PfmFamily: 17
TTFWeight: 500
TTFWidth: 5
LineGap: 0
VLineGap: 0
Panose: 2 0 6 9 0 0 0 0 0 0
OS2TypoAscent: 768
OS2TypoAOffset: 0
OS2TypoDescent: -256
OS2TypoDOffset: 0
OS2TypoLinegap: 0
OS2WinAscent: 768
OS2WinAOffset: 0
OS2WinDescent: 256
OS2WinDOffset: 0
HheadAscent: 768
HheadAOffset: 0
HheadDescent: -256
HheadDOffset: 0
OS2SubXSize: 665
OS2SubYSize: 716
OS2SubXOff: 0
OS2SubYOff: 143
OS2SupXSize: 665
OS2SupYSize: 716
OS2SupXOff: 0
OS2SupYOff: 490
OS2StrikeYSize: 51
OS2StrikeYPos: 265
OS2Vendor: '2ttf'
OS2CodePages: 00000001.00000000
OS2UnicodeRanges: 80000003.00000000.00000000.00000000
Lookup: 4 0 0 "'liga' Standard Ligatures in Latin lookup 0" { "'liga' Standard Ligatures in Latin lookup 0-1"  } ['liga' ('DFLT' <'dflt' > 'latn' <'dflt' > ) ]
MarkAttachClasses: 1
DEI: 91125
ShortTable: cvt  2
  34
  648
EndShort
ShortTable: maxp 16
  1
  0
  70
  96
  17
  0
  0
  2
  0
  1
  1
  0
  64
  46
  0
  0
EndShort
LangName: 1033 "" "" "" "CorentinVIALAR:FelidarFR"
GaspTable: 1 65535 0 0
Encoding: UnicodeBmp
UnicodeInterp: none
NameList: AGL For New Fonts
DisplaySize: -48
AntiAlias: 1
FitToEm: 0
WinInfo: 65436 21 6
BeginChars: 65560 70

StartChar: a_e
Encoding: 65536 -1 0
Width: 0
Flags: WO
LayerCount: 2
Fore
SplineSet
-254 -498 m 1,0,-1
 -254 -434 l 1,1,-1
 -318 -434 l 1,2,-1
 -318 -498 l 1,3,-1
 -254 -498 l 1,0,-1
-318 -434 m 1,4,-1
 -318 -370 l 1,5,-1
 -382 -370 l 1,6,-1
 -382 -434 l 1,7,-1
 -318 -434 l 1,4,-1
-382 -370 m 1,8,-1
 -382 -306 l 1,9,-1
 -446 -306 l 1,10,-1
 -446 -370 l 1,11,-1
 -382 -370 l 1,8,-1
-446 -306 m 1,12,-1
 -446 -242 l 1,13,-1
 -510 -242 l 1,14,-1
 -510 -306 l 1,15,-1
 -446 -306 l 1,12,-1
-510 -242 m 1,16,-1
 -510 -178 l 1,17,-1
 -574 -178 l 1,18,-1
 -574 -242 l 1,19,-1
 -510 -242 l 1,16,-1
-512 -97 m 1,20,-1
 -575 -97 l 1,21,-1
 -575 -161 l 1,22,-1
 -512 -161 l 1,23,-1
 -449 -161 l 1,24,-1
 -384 -161 l 1,25,-1
 -319 -161 l 1,26,-1
 -256 -161 l 1,27,-1
 -256 -97 l 1,28,-1
 -319 -97 l 1,29,-1
 -384 -97 l 1,30,-1
 -449 -97 l 1,31,-1
 -512 -97 l 1,20,-1
EndSplineSet
LCarets2: 1 0
Ligature2: "'liga' Standard Ligatures in Latin lookup 0-1" a e
EndChar

StartChar: exclam
Encoding: 33 33 4
Width: 896
GlyphClass: 2
Flags: W
LayerCount: 2
Fore
SplineSet
128 63 m 1,0,-1
 63 63 l 1,1,-1
 63 128 l 1,2,-1
 63 193 l 1,3,-1
 63 256 l 1,4,-1
 63 319 l 1,5,-1
 0 319 l 1,6,-1
 0 384 l 1,7,-1
 63 384 l 1,8,-1
 128 384 l 1,9,-1
 193 384 l 1,10,-1
 256 384 l 1,11,-1
 319 384 l 1,12,-1
 384 384 l 1,13,-1
 449 384 l 1,14,-1
 449 449 l 1,15,-1
 512 449 l 1,16,-1
 512 512 l 1,17,-1
 575 512 l 1,18,-1
 575 575 l 1,19,-1
 640 575 l 1,20,-1
 640 640 l 1,21,-1
 705 640 l 1,22,-1
 768 640 l 1,23,-1
 768 575 l 1,24,-1
 768 512 l 1,25,-1
 768 449 l 1,26,-1
 768 384 l 1,27,-1
 831 384 l 1,28,-1
 896 384 l 1,29,-1
 896 319 l 1,30,-1
 831 319 l 1,31,-1
 768 319 l 1,32,-1
 705 319 l 1,33,-1
 640 319 l 1,34,-1
 575 319 l 1,35,-1
 512 319 l 1,36,-1
 449 319 l 1,37,-1
 384 319 l 1,38,-1
 384 256 l 1,39,-1
 319 256 l 1,40,-1
 319 193 l 1,41,-1
 256 193 l 1,42,-1
 256 128 l 1,43,-1
 193 128 l 1,44,-1
 193 193 l 1,45,-1
 256 193 l 1,46,-1
 256 256 l 1,47,-1
 319 256 l 1,48,-1
 319 319 l 1,49,-1
 256 319 l 1,50,-1
 193 319 l 1,51,-1
 128 319 l 1,52,-1
 128 256 l 1,53,-1
 128 193 l 1,54,-1
 128 128 l 1,55,-1
 193 128 l 1,56,-1
 193 63 l 1,57,-1
 128 63 l 1,0,-1
640 384 m 1,58,-1
 705 384 l 1,59,-1
 705 449 l 1,60,-1
 705 512 l 1,61,-1
 705 575 l 1,62,-1
 640 575 l 1,63,-1
 640 512 l 1,64,-1
 575 512 l 1,65,-1
 575 449 l 1,66,-1
 512 449 l 1,67,-1
 512 384 l 1,68,-1
 575 384 l 1,69,-1
 640 384 l 1,58,-1
EndSplineSet
Validated: 5
EndChar

StartChar: quotedbl
Encoding: 34 34 5
Width: 896
GlyphClass: 2
Flags: W
LayerCount: 2
Fore
SplineSet
384 193 m 1,0,-1
 384 256 l 1,1,-1
 449 256 l 1,2,-1
 449 193 l 1,3,-1
 384 193 l 1,0,-1
384 256 m 1,4,-1
 319 256 l 1,5,-1
 319 319 l 1,6,-1
 384 319 l 1,7,-1
 384 256 l 1,4,-1
831 384 m 1,8,-1
 896 384 l 1,9,-1
 896 319 l 1,10,-1
 831 319 l 1,11,-1
 768 319 l 1,12,-1
 705 319 l 1,13,-1
 640 319 l 1,14,-1
 575 319 l 1,15,-1
 512 319 l 1,16,-1
 512 384 l 1,17,-1
 575 384 l 1,18,-1
 640 384 l 1,19,-1
 705 384 l 1,20,-1
 768 384 l 1,21,-1
 831 384 l 1,8,-1
319 319 m 1,22,-1
 256 319 l 1,23,-1
 193 319 l 1,24,-1
 128 319 l 1,25,-1
 63 319 l 1,26,-1
 0 319 l 1,27,-1
 0 384 l 1,28,-1
 63 384 l 1,29,-1
 128 384 l 1,30,-1
 193 384 l 1,31,-1
 256 384 l 1,32,-1
 319 384 l 1,33,-1
 319 319 l 1,22,-1
512 384 m 1,34,-1
 449 384 l 1,35,-1
 449 449 l 1,36,-1
 512 449 l 1,37,-1
 512 384 l 1,34,-1
449 449 m 1,38,-1
 384 449 l 1,39,-1
 384 512 l 1,40,-1
 449 512 l 1,41,-1
 449 449 l 1,38,-1
EndSplineSet
Validated: 5
EndChar

StartChar: parenleft
Encoding: 40 40 6
Width: 896
GlyphClass: 2
Flags: W
LayerCount: 2
Fore
SplineSet
63 384 m 1,0,-1
 128 384 l 1,1,-1
 128 319 l 1,2,-1
 63 319 l 1,3,-1
 0 319 l 1,4,-1
 0 384 l 1,5,-1
 63 384 l 1,0,-1
128 384 m 1,6,-1
 128 449 l 1,7,-1
 193 449 l 1,8,-1
 193 384 l 1,9,-1
 128 384 l 1,6,-1
193 449 m 1,10,-1
 193 512 l 1,11,-1
 256 512 l 1,12,-1
 256 449 l 1,13,-1
 193 449 l 1,10,-1
256 512 m 1,14,-1
 256 575 l 1,15,-1
 319 575 l 1,16,-1
 319 512 l 1,17,-1
 256 512 l 1,14,-1
384 640 m 1,18,-1
 449 640 l 1,19,-1
 449 575 l 1,20,-1
 384 575 l 1,21,-1
 319 575 l 1,22,-1
 319 640 l 1,23,-1
 384 640 l 1,18,-1
EndSplineSet
Validated: 5
EndChar

StartChar: parenright
Encoding: 41 41 7
Width: 896
GlyphClass: 2
Flags: W
LayerCount: 2
Fore
SplineSet
512 128 m 1,0,-1
 575 128 l 1,1,-1
 575 63 l 1,2,-1
 512 63 l 1,3,-1
 449 63 l 1,4,-1
 449 128 l 1,5,-1
 512 128 l 1,0,-1
575 128 m 1,6,-1
 575 193 l 1,7,-1
 640 193 l 1,8,-1
 640 128 l 1,9,-1
 575 128 l 1,6,-1
640 193 m 1,10,-1
 640 256 l 1,11,-1
 705 256 l 1,12,-1
 705 193 l 1,13,-1
 640 193 l 1,10,-1
705 256 m 1,14,-1
 705 319 l 1,15,-1
 768 319 l 1,16,-1
 768 256 l 1,17,-1
 705 256 l 1,14,-1
831 384 m 1,18,-1
 896 384 l 1,19,-1
 896 319 l 1,20,-1
 831 319 l 1,21,-1
 768 319 l 1,22,-1
 768 384 l 1,23,-1
 831 384 l 1,18,-1
EndSplineSet
Validated: 5
EndChar

StartChar: comma
Encoding: 44 44 8
Width: 896
GlyphClass: 2
Flags: W
LayerCount: 2
Fore
SplineSet
384 193 m 1,0,-1
 449 193 l 1,1,-1
 449 128 l 1,2,-1
 384 128 l 1,3,-1
 319 128 l 1,4,-1
 319 193 l 1,5,-1
 384 193 l 1,0,-1
319 193 m 1,6,-1
 256 193 l 1,7,-1
 256 256 l 1,8,-1
 319 256 l 1,9,-1
 319 193 l 1,6,-1
256 256 m 1,10,-1
 193 256 l 1,11,-1
 193 319 l 1,12,-1
 256 319 l 1,13,-1
 256 256 l 1,10,-1
831 384 m 1,14,-1
 896 384 l 1,15,-1
 896 319 l 1,16,-1
 831 319 l 1,17,-1
 768 319 l 1,18,-1
 705 319 l 1,19,-1
 705 384 l 1,20,-1
 768 384 l 1,21,-1
 831 384 l 1,14,-1
193 319 m 1,22,-1
 128 319 l 1,23,-1
 63 319 l 1,24,-1
 0 319 l 1,25,-1
 0 384 l 1,26,-1
 63 384 l 1,27,-1
 128 384 l 1,28,-1
 193 384 l 1,29,-1
 193 319 l 1,22,-1
705 384 m 1,30,-1
 640 384 l 1,31,-1
 640 449 l 1,32,-1
 705 449 l 1,33,-1
 705 384 l 1,30,-1
640 449 m 1,34,-1
 575 449 l 1,35,-1
 575 512 l 1,36,-1
 640 512 l 1,37,-1
 640 449 l 1,34,-1
575 512 m 1,38,-1
 512 512 l 1,39,-1
 449 512 l 1,40,-1
 449 575 l 1,41,-1
 512 575 l 1,42,-1
 575 575 l 1,43,-1
 575 512 l 1,38,-1
EndSplineSet
Validated: 5
EndChar

StartChar: period
Encoding: 46 46 9
Width: 896
GlyphClass: 2
Flags: W
LayerCount: 2
Fore
SplineSet
256 128 m 1,0,-1
 256 193 l 1,1,-1
 319 193 l 1,2,-1
 319 128 l 1,3,-1
 256 128 l 1,0,-1
575 193 m 1,4,-1
 640 193 l 1,5,-1
 640 128 l 1,6,-1
 575 128 l 1,7,-1
 512 128 l 1,8,-1
 512 193 l 1,9,-1
 575 193 l 1,4,-1
512 193 m 1,10,-1
 449 193 l 1,11,-1
 449 256 l 1,12,-1
 512 256 l 1,13,-1
 512 193 l 1,10,-1
256 193 m 1,14,-1
 193 193 l 1,15,-1
 193 256 l 1,16,-1
 256 256 l 1,17,-1
 256 193 l 1,14,-1
831 319 m 1,18,-1
 896 319 l 1,19,-1
 896 256 l 1,20,-1
 831 256 l 1,21,-1
 768 256 l 1,22,-1
 705 256 l 1,23,-1
 640 256 l 1,24,-1
 640 319 l 1,25,-1
 705 319 l 1,26,-1
 768 319 l 1,27,-1
 831 319 l 1,18,-1
449 256 m 1,28,-1
 384 256 l 1,29,-1
 384 319 l 1,30,-1
 449 319 l 1,31,-1
 449 256 l 1,28,-1
193 256 m 1,32,-1
 128 256 l 1,33,-1
 128 319 l 1,34,-1
 193 319 l 1,35,-1
 193 256 l 1,32,-1
640 319 m 1,36,-1
 575 319 l 1,37,-1
 575 384 l 1,38,-1
 640 384 l 1,39,-1
 640 319 l 1,36,-1
384 319 m 1,40,-1
 319 319 l 1,41,-1
 319 384 l 1,42,-1
 384 384 l 1,43,-1
 384 319 l 1,40,-1
128 319 m 1,44,-1
 63 319 l 1,45,-1
 0 319 l 1,46,-1
 0 384 l 1,47,-1
 63 384 l 1,48,-1
 128 384 l 1,49,-1
 128 319 l 1,44,-1
575 384 m 1,50,-1
 512 384 l 1,51,-1
 512 449 l 1,52,-1
 575 449 l 1,53,-1
 575 384 l 1,50,-1
319 384 m 1,54,-1
 256 384 l 1,55,-1
 256 449 l 1,56,-1
 319 449 l 1,57,-1
 319 384 l 1,54,-1
512 449 m 1,58,-1
 449 449 l 1,59,-1
 449 512 l 1,60,-1
 512 512 l 1,61,-1
 512 449 l 1,58,-1
256 449 m 1,62,-1
 193 449 l 1,63,-1
 128 449 l 1,64,-1
 128 512 l 1,65,-1
 193 512 l 1,66,-1
 256 512 l 1,67,-1
 256 449 l 1,62,-1
EndSplineSet
Validated: 5
EndChar

StartChar: one
Encoding: 49 49 10
Width: 0
GlyphClass: 2
Flags: W
LayerCount: 2
Fore
SplineSet
-334 -634 m 1,0,-1
 -334 -570 l 1,1,-1
 -334 -506 l 1,2,-1
 -270 -506 l 1,3,-1
 -270 -570 l 1,4,-1
 -270 -634 l 1,5,-1
 -334 -634 l 1,0,-1
-462 -634 m 1,6,-1
 -526 -634 l 1,7,-1
 -526 -570 l 1,8,-1
 -462 -570 l 1,9,-1
 -462 -506 l 1,10,-1
 -462 -442 l 1,11,-1
 -398 -442 l 1,12,-1
 -334 -442 l 1,13,-1
 -334 -506 l 1,14,-1
 -398 -506 l 1,15,-1
 -398 -570 l 1,16,-1
 -398 -634 l 1,17,-1
 -462 -634 l 1,6,-1
-526 -570 m 1,18,-1
 -590 -570 l 1,19,-1
 -590 -506 l 1,20,-1
 -590 -442 l 1,21,-1
 -526 -442 l 1,22,-1
 -526 -506 l 1,23,-1
 -526 -570 l 1,18,-1
-464 -404 m 1,24,-1
 -464 -340 l 1,25,-1
 -464 -276 l 1,26,-1
 -464 -212 l 1,27,-1
 -464 -148 l 1,28,-1
 -464 -84 l 1,29,-1
 -399 -84 l 1,30,-1
 -399 -148 l 1,31,-1
 -399 -212 l 1,32,-1
 -399 -276 l 1,33,-1
 -399 -340 l 1,34,-1
 -399 -404 l 1,35,-1
 -464 -404 l 1,24,-1
EndSplineSet
Validated: 5
EndChar

StartChar: two
Encoding: 50 50 11
Width: 0
GlyphClass: 2
Flags: W
LayerCount: 2
Fore
SplineSet
-536 -406 m 1,0,-1
 -536 -342 l 1,1,-1
 -600 -342 l 1,2,-1
 -600 -406 l 1,3,-1
 -536 -406 l 1,0,-1
-280 -406 m 1,4,-1
 -280 -342 l 1,5,-1
 -344 -342 l 1,6,-1
 -344 -406 l 1,7,-1
 -280 -406 l 1,4,-1
-536 -342 m 1,8,-1
 -472 -342 l 1,9,-1
 -472 -278 l 1,10,-1
 -536 -278 l 1,11,-1
 -536 -342 l 1,8,-1
-344 -342 m 1,12,-1
 -344 -278 l 1,13,-1
 -408 -278 l 1,14,-1
 -408 -342 l 1,15,-1
 -344 -342 l 1,12,-1
-472 -278 m 1,16,-1
 -408 -278 l 1,17,-1
 -408 -214 l 1,18,-1
 -472 -214 l 1,19,-1
 -472 -278 l 1,16,-1
-472 -214 m 1,20,-1
 -472 -150 l 1,21,-1
 -536 -150 l 1,22,-1
 -536 -214 l 1,23,-1
 -472 -214 l 1,20,-1
-408 -214 m 1,24,-1
 -344 -214 l 1,25,-1
 -344 -150 l 1,26,-1
 -408 -150 l 1,27,-1
 -408 -214 l 1,24,-1
-536 -150 m 1,28,-1
 -536 -86 l 1,29,-1
 -600 -86 l 1,30,-1
 -600 -150 l 1,31,-1
 -536 -150 l 1,28,-1
-344 -150 m 1,32,-1
 -280 -150 l 1,33,-1
 -280 -86 l 1,34,-1
 -344 -86 l 1,35,-1
 -344 -150 l 1,32,-1
EndSplineSet
Validated: 5
EndChar

StartChar: three
Encoding: 51 51 12
Width: 896
GlyphClass: 2
Flags: W
LayerCount: 2
Fore
SplineSet
516 382 m 1,0,-1
 580 382 l 1,1,-1
 580 318 l 1,2,-1
 516 318 l 1,3,-1
 452 318 l 1,4,-1
 388 318 l 1,5,-1
 324 318 l 1,6,-1
 260 318 l 1,7,-1
 260 382 l 1,8,-1
 324 382 l 1,9,-1
 388 382 l 1,10,-1
 452 382 l 1,11,-1
 516 382 l 1,0,-1
EndSplineSet
Validated: 1
EndChar

StartChar: four
Encoding: 52 52 13
Width: 896
GlyphClass: 2
Flags: W
LayerCount: 2
Fore
SplineSet
400 234 m 1,0,-1
 400 298 l 1,1,-1
 400 362 l 1,2,-1
 400 426 l 1,3,-1
 400 490 l 1,4,-1
 400 554 l 1,5,-1
 464 554 l 1,6,-1
 464 490 l 1,7,-1
 464 426 l 1,8,-1
 464 362 l 1,9,-1
 464 298 l 1,10,-1
 464 234 l 1,11,-1
 400 234 l 1,0,-1
EndSplineSet
Validated: 1
EndChar

StartChar: five
Encoding: 53 53 14
Width: 896
GlyphClass: 2
Flags: W
LayerCount: 2
Fore
SplineSet
362 313 m 1,0,-1
 362 377 l 1,1,-1
 298 377 l 1,2,-1
 298 313 l 1,3,-1
 298 249 l 1,4,-1
 362 249 l 1,5,-1
 362 313 l 1,0,-1
362 377 m 1,6,-1
 426 377 l 1,7,-1
 490 377 l 1,8,-1
 554 377 l 1,9,-1
 554 441 l 1,10,-1
 490 441 l 1,11,-1
 426 441 l 1,12,-1
 362 441 l 1,13,-1
 362 377 l 1,6,-1
362 249 m 1,14,-1
 362 185 l 1,15,-1
 426 185 l 1,16,-1
 490 185 l 1,17,-1
 554 185 l 1,18,-1
 554 249 l 1,19,-1
 490 249 l 1,20,-1
 426 249 l 1,21,-1
 362 249 l 1,14,-1
EndSplineSet
Validated: 5
EndChar

StartChar: six
Encoding: 54 54 15
Width: 896
GlyphClass: 2
Flags: W
LayerCount: 2
Fore
SplineSet
604 194 m 1,0,-1
 604 258 l 1,1,-1
 540 258 l 1,2,-1
 540 194 l 1,3,-1
 604 194 l 1,0,-1
540 258 m 1,4,-1
 540 322 l 1,5,-1
 476 322 l 1,6,-1
 476 258 l 1,7,-1
 540 258 l 1,4,-1
476 322 m 1,8,-1
 476 386 l 1,9,-1
 412 386 l 1,10,-1
 412 322 l 1,11,-1
 476 322 l 1,8,-1
412 386 m 1,12,-1
 412 450 l 1,13,-1
 348 450 l 1,14,-1
 348 386 l 1,15,-1
 412 386 l 1,12,-1
348 450 m 1,16,-1
 348 514 l 1,17,-1
 284 514 l 1,18,-1
 284 450 l 1,19,-1
 348 450 l 1,16,-1
EndSplineSet
Validated: 5
EndChar

StartChar: seven
Encoding: 55 55 16
Width: 896
GlyphClass: 2
Flags: W
LayerCount: 2
Fore
SplineSet
404 214 m 1,0,-1
 404 278 l 1,1,-1
 468 278 l 1,2,-1
 468 214 l 1,3,-1
 404 214 l 1,0,-1
468 278 m 1,4,-1
 468 342 l 1,5,-1
 532 342 l 1,6,-1
 532 278 l 1,7,-1
 468 278 l 1,4,-1
404 278 m 1,8,-1
 340 278 l 1,9,-1
 340 342 l 1,10,-1
 404 342 l 1,11,-1
 404 278 l 1,8,-1
532 342 m 1,12,-1
 532 406 l 1,13,-1
 596 406 l 1,14,-1
 596 342 l 1,15,-1
 532 342 l 1,12,-1
340 342 m 1,16,-1
 276 342 l 1,17,-1
 276 406 l 1,18,-1
 340 406 l 1,19,-1
 340 342 l 1,16,-1
532 406 m 1,20,-1
 468 406 l 1,21,-1
 468 470 l 1,22,-1
 532 470 l 1,23,-1
 532 406 l 1,20,-1
340 406 m 1,24,-1
 340 470 l 1,25,-1
 404 470 l 1,26,-1
 404 406 l 1,27,-1
 340 406 l 1,24,-1
468 470 m 1,28,-1
 404 470 l 1,29,-1
 404 534 l 1,30,-1
 468 534 l 1,31,-1
 468 470 l 1,28,-1
EndSplineSet
Validated: 5
EndChar

StartChar: eight
Encoding: 56 56 17
Width: 896
GlyphClass: 2
Flags: W
LayerCount: 2
Fore
SplineSet
550 313 m 1,0,-1
 550 377 l 1,1,-1
 614 377 l 1,2,-1
 614 313 l 1,3,-1
 614 249 l 1,4,-1
 550 249 l 1,5,-1
 550 313 l 1,0,-1
550 377 m 1,6,-1
 486 377 l 1,7,-1
 422 377 l 1,8,-1
 358 377 l 1,9,-1
 358 441 l 1,10,-1
 422 441 l 1,11,-1
 486 441 l 1,12,-1
 550 441 l 1,13,-1
 550 377 l 1,6,-1
550 249 m 1,14,-1
 550 185 l 1,15,-1
 486 185 l 1,16,-1
 422 185 l 1,17,-1
 358 185 l 1,18,-1
 358 249 l 1,19,-1
 422 249 l 1,20,-1
 486 249 l 1,21,-1
 550 249 l 1,14,-1
EndSplineSet
Validated: 5
EndChar

StartChar: nine
Encoding: 57 57 18
Width: 0
GlyphClass: 2
Flags: W
LayerCount: 2
Fore
SplineSet
-536 -406 m 1,0,-1
 -536 -342 l 1,1,-1
 -600 -342 l 1,2,-1
 -600 -406 l 1,3,-1
 -536 -406 l 1,0,-1
-280 -406 m 1,4,-1
 -280 -342 l 1,5,-1
 -344 -342 l 1,6,-1
 -344 -406 l 1,7,-1
 -280 -406 l 1,4,-1
-536 -342 m 1,8,-1
 -472 -342 l 1,9,-1
 -472 -278 l 1,10,-1
 -536 -278 l 1,11,-1
 -536 -342 l 1,8,-1
-344 -342 m 1,12,-1
 -344 -278 l 1,13,-1
 -408 -278 l 1,14,-1
 -408 -342 l 1,15,-1
 -344 -342 l 1,12,-1
-472 -278 m 1,16,-1
 -408 -278 l 1,17,-1
 -408 -214 l 1,18,-1
 -472 -214 l 1,19,-1
 -472 -278 l 1,16,-1
-472 -214 m 1,20,-1
 -472 -150 l 1,21,-1
 -536 -150 l 1,22,-1
 -536 -214 l 1,23,-1
 -472 -214 l 1,20,-1
-408 -214 m 1,24,-1
 -344 -214 l 1,25,-1
 -344 -150 l 1,26,-1
 -408 -150 l 1,27,-1
 -408 -214 l 1,24,-1
-536 -150 m 1,28,-1
 -536 -86 l 1,29,-1
 -600 -86 l 1,30,-1
 -600 -150 l 1,31,-1
 -536 -150 l 1,28,-1
-344 -150 m 1,32,-1
 -280 -150 l 1,33,-1
 -280 -86 l 1,34,-1
 -344 -86 l 1,35,-1
 -344 -150 l 1,32,-1
EndSplineSet
Validated: 5
EndChar

StartChar: colon
Encoding: 58 58 19
Width: 896
GlyphClass: 2
Flags: W
LayerCount: 2
Fore
SplineSet
831 384 m 1,0,-1
 896 384 l 1,1,-1
 896 319 l 1,2,-1
 831 319 l 1,3,-1
 768 319 l 1,4,-1
 768 384 l 1,5,-1
 831 384 l 1,0,-1
575 384 m 1,6,-1
 640 384 l 1,7,-1
 640 319 l 1,8,-1
 575 319 l 1,9,-1
 512 319 l 1,10,-1
 512 384 l 1,11,-1
 575 384 l 1,6,-1
319 384 m 1,12,-1
 384 384 l 1,13,-1
 384 319 l 1,14,-1
 319 319 l 1,15,-1
 256 319 l 1,16,-1
 256 384 l 1,17,-1
 319 384 l 1,12,-1
63 384 m 1,18,-1
 128 384 l 1,19,-1
 128 319 l 1,20,-1
 63 319 l 1,21,-1
 0 319 l 1,22,-1
 0 384 l 1,23,-1
 63 384 l 1,18,-1
EndSplineSet
Validated: 1
EndChar

StartChar: semicolon
Encoding: 59 59 20
Width: 896
GlyphClass: 2
Flags: W
LayerCount: 2
Fore
SplineSet
449 193 m 1,0,-1
 449 256 l 1,1,-1
 512 256 l 1,2,-1
 512 193 l 1,3,-1
 449 193 l 1,0,-1
512 256 m 1,4,-1
 512 319 l 1,5,-1
 575 319 l 1,6,-1
 575 256 l 1,7,-1
 512 256 l 1,4,-1
831 384 m 1,8,-1
 896 384 l 1,9,-1
 896 319 l 1,10,-1
 831 319 l 1,11,-1
 768 319 l 1,12,-1
 705 319 l 1,13,-1
 640 319 l 1,14,-1
 575 319 l 1,15,-1
 575 384 l 1,16,-1
 640 384 l 1,17,-1
 705 384 l 1,18,-1
 768 384 l 1,19,-1
 831 384 l 1,8,-1
319 384 m 1,20,-1
 384 384 l 1,21,-1
 384 319 l 1,22,-1
 319 319 l 1,23,-1
 256 319 l 1,24,-1
 256 384 l 1,25,-1
 319 384 l 1,20,-1
63 384 m 1,26,-1
 128 384 l 1,27,-1
 128 319 l 1,28,-1
 63 319 l 1,29,-1
 0 319 l 1,30,-1
 0 384 l 1,31,-1
 63 384 l 1,26,-1
384 384 m 1,32,-1
 384 449 l 1,33,-1
 449 449 l 1,34,-1
 449 384 l 1,35,-1
 384 384 l 1,32,-1
449 449 m 1,36,-1
 449 512 l 1,37,-1
 512 512 l 1,38,-1
 512 449 l 1,39,-1
 449 449 l 1,36,-1
EndSplineSet
Validated: 5
EndChar

StartChar: at
Encoding: 64 64 21
Width: 0
GlyphClass: 2
Flags: W
LayerCount: 2
Fore
SplineSet
-536 -406 m 1,0,-1
 -536 -342 l 1,1,-1
 -600 -342 l 1,2,-1
 -600 -406 l 1,3,-1
 -536 -406 l 1,0,-1
-280 -406 m 1,4,-1
 -280 -342 l 1,5,-1
 -344 -342 l 1,6,-1
 -344 -406 l 1,7,-1
 -280 -406 l 1,4,-1
-536 -342 m 1,8,-1
 -472 -342 l 1,9,-1
 -472 -278 l 1,10,-1
 -536 -278 l 1,11,-1
 -536 -342 l 1,8,-1
-344 -342 m 1,12,-1
 -344 -278 l 1,13,-1
 -408 -278 l 1,14,-1
 -408 -342 l 1,15,-1
 -344 -342 l 1,12,-1
-472 -278 m 1,16,-1
 -408 -278 l 1,17,-1
 -408 -214 l 1,18,-1
 -472 -214 l 1,19,-1
 -472 -278 l 1,16,-1
-472 -214 m 1,20,-1
 -472 -150 l 1,21,-1
 -536 -150 l 1,22,-1
 -536 -214 l 1,23,-1
 -472 -214 l 1,20,-1
-408 -214 m 1,24,-1
 -344 -214 l 1,25,-1
 -344 -150 l 1,26,-1
 -408 -150 l 1,27,-1
 -408 -214 l 1,24,-1
-536 -150 m 1,28,-1
 -536 -86 l 1,29,-1
 -600 -86 l 1,30,-1
 -600 -150 l 1,31,-1
 -536 -150 l 1,28,-1
-344 -150 m 1,32,-1
 -280 -150 l 1,33,-1
 -280 -86 l 1,34,-1
 -344 -86 l 1,35,-1
 -344 -150 l 1,32,-1
EndSplineSet
Validated: 5
EndChar

StartChar: A
Encoding: 65 65 22
Width: 0
GlyphClass: 2
Flags: W
LayerCount: 2
Fore
SplineSet
-328 -408 m 1,0,-1
 -328 -344 l 1,1,-1
 -328 -280 l 1,2,-1
 -265 -280 l 1,3,-1
 -265 -344 l 1,4,-1
 -265 -408 l 1,5,-1
 -328 -408 l 1,0,-1
-456 -408 m 1,6,-1
 -521 -408 l 1,7,-1
 -521 -344 l 1,8,-1
 -456 -344 l 1,9,-1
 -456 -280 l 1,10,-1
 -456 -216 l 1,11,-1
 -391 -216 l 1,12,-1
 -328 -216 l 1,13,-1
 -328 -280 l 1,14,-1
 -391 -280 l 1,15,-1
 -391 -344 l 1,16,-1
 -391 -408 l 1,17,-1
 -456 -408 l 1,6,-1
-521 -344 m 1,18,-1
 -584 -344 l 1,19,-1
 -584 -280 l 1,20,-1
 -584 -216 l 1,21,-1
 -521 -216 l 1,22,-1
 -521 -280 l 1,23,-1
 -521 -344 l 1,18,-1
-328 -97 m 1,24,-1
 -265 -97 l 1,25,-1
 -265 -161 l 1,26,-1
 -328 -161 l 1,27,-1
 -391 -161 l 1,28,-1
 -456 -161 l 1,29,-1
 -521 -161 l 1,30,-1
 -584 -161 l 1,31,-1
 -584 -97 l 1,32,-1
 -521 -97 l 1,33,-1
 -456 -97 l 1,34,-1
 -391 -97 l 1,35,-1
 -328 -97 l 1,24,-1
EndSplineSet
Validated: 5
EndChar

StartChar: B
Encoding: 66 66 23
Width: 896
GlyphClass: 2
Flags: W
LayerCount: 2
Fore
SplineSet
560 412 m 1,0,-1
 624 412 l 1,1,-1
 624 348 l 1,2,-1
 560 348 l 1,3,-1
 496 348 l 1,4,-1
 432 348 l 1,5,-1
 368 348 l 1,6,-1
 304 348 l 1,7,-1
 304 412 l 1,8,-1
 368 412 l 1,9,-1
 432 412 l 1,10,-1
 496 412 l 1,11,-1
 560 412 l 1,0,-1
558 97 m 1,12,-1
 558 162 l 1,13,-1
 558 225 l 1,14,-1
 623 225 l 1,15,-1
 623 162 l 1,16,-1
 623 97 l 1,17,-1
 558 97 l 1,12,-1
430 97 m 1,18,-1
 367 97 l 1,19,-1
 367 162 l 1,20,-1
 430 162 l 1,21,-1
 430 225 l 1,22,-1
 430 288 l 1,23,-1
 493 288 l 1,24,-1
 558 288 l 1,25,-1
 558 225 l 1,26,-1
 493 225 l 1,27,-1
 493 162 l 1,28,-1
 493 97 l 1,29,-1
 430 97 l 1,18,-1
367 162 m 1,30,-1
 302 162 l 1,31,-1
 302 225 l 1,32,-1
 302 288 l 1,33,-1
 367 288 l 1,34,-1
 367 225 l 1,35,-1
 367 162 l 1,30,-1
EndSplineSet
Validated: 5
EndChar

StartChar: C
Encoding: 67 67 24
Width: 0
GlyphClass: 2
Flags: W
LayerCount: 2
Fore
SplineSet
-306 -628 m 5,0,-1
 -306 -564 l 5,1,-1
 -306 -500 l 5,2,-1
 -242 -500 l 5,3,-1
 -242 -564 l 5,4,-1
 -242 -628 l 5,5,-1
 -306 -628 l 5,0,-1
-434 -628 m 5,6,-1
 -498 -628 l 5,7,-1
 -498 -564 l 5,8,-1
 -434 -564 l 5,9,-1
 -434 -500 l 5,10,-1
 -434 -436 l 5,11,-1
 -370 -436 l 5,12,-1
 -306 -436 l 5,13,-1
 -306 -500 l 5,14,-1
 -370 -500 l 5,15,-1
 -370 -564 l 5,16,-1
 -370 -628 l 5,17,-1
 -434 -628 l 5,6,-1
-498 -564 m 5,18,-1
 -562 -564 l 5,19,-1
 -562 -500 l 5,20,-1
 -562 -436 l 5,21,-1
 -498 -436 l 5,22,-1
 -498 -500 l 5,23,-1
 -498 -564 l 5,18,-1
-384 -408 m 1,24,-1
 -384 -344 l 1,25,-1
 -449 -344 l 1,26,-1
 -449 -408 l 1,27,-1
 -384 -408 l 1,24,-1
-449 -344 m 1,28,-1
 -449 -280 l 1,29,-1
 -512 -280 l 1,30,-1
 -512 -344 l 1,31,-1
 -449 -344 l 1,28,-1
-384 -344 m 1,32,-1
 -319 -344 l 1,33,-1
 -319 -280 l 1,34,-1
 -384 -280 l 1,35,-1
 -384 -344 l 1,32,-1
-512 -280 m 1,36,-1
 -512 -216 l 1,37,-1
 -575 -216 l 1,38,-1
 -575 -280 l 1,39,-1
 -512 -280 l 1,36,-1
-319 -280 m 1,40,-1
 -256 -280 l 1,41,-1
 -256 -216 l 1,42,-1
 -319 -216 l 1,43,-1
 -319 -280 l 1,40,-1
-512 -216 m 1,44,-1
 -449 -216 l 1,45,-1
 -449 -152 l 1,46,-1
 -512 -152 l 1,47,-1
 -512 -216 l 1,44,-1
-319 -216 m 1,48,-1
 -319 -152 l 1,49,-1
 -384 -152 l 1,50,-1
 -384 -216 l 1,51,-1
 -319 -216 l 1,48,-1
-449 -152 m 1,52,-1
 -384 -152 l 1,53,-1
 -384 -88 l 1,54,-1
 -449 -88 l 1,55,-1
 -449 -152 l 1,52,-1
EndSplineSet
Validated: 5
EndChar

StartChar: D
Encoding: 68 68 25
Width: 896
GlyphClass: 2
Flags: W
LayerCount: 2
Fore
SplineSet
512 0 m 1,0,-1
 512 63 l 1,1,-1
 512 128 l 1,2,-1
 575 128 l 1,3,-1
 575 63 l 1,4,-1
 575 0 l 1,5,-1
 512 0 l 1,0,-1
384 0 m 1,6,-1
 319 0 l 1,7,-1
 319 63 l 1,8,-1
 384 63 l 1,9,-1
 384 128 l 1,10,-1
 384 193 l 1,11,-1
 449 193 l 1,12,-1
 512 193 l 1,13,-1
 512 128 l 1,14,-1
 449 128 l 1,15,-1
 449 63 l 1,16,-1
 449 0 l 1,17,-1
 384 0 l 1,6,-1
319 63 m 1,18,-1
 256 63 l 1,19,-1
 256 128 l 1,20,-1
 256 193 l 1,21,-1
 319 193 l 1,22,-1
 319 128 l 1,23,-1
 319 63 l 1,18,-1
400 234 m 1,24,-1
 400 298 l 1,25,-1
 400 362 l 1,26,-1
 400 426 l 1,27,-1
 400 490 l 1,28,-1
 400 554 l 1,29,-1
 464 554 l 1,30,-1
 464 490 l 1,31,-1
 464 426 l 1,32,-1
 464 362 l 1,33,-1
 464 298 l 1,34,-1
 464 234 l 1,35,-1
 400 234 l 1,24,-1
EndSplineSet
Validated: 5
EndChar

StartChar: E
Encoding: 69 69 26
Width: 0
GlyphClass: 2
Flags: W
LayerCount: 2
Fore
SplineSet
-524 -416 m 1,0,-1
 -524 -352 l 1,1,-1
 -588 -352 l 1,2,-1
 -588 -416 l 1,3,-1
 -524 -416 l 1,0,-1
-524 -352 m 1,4,-1
 -460 -352 l 1,5,-1
 -460 -288 l 1,6,-1
 -524 -288 l 1,7,-1
 -524 -352 l 1,4,-1
-460 -288 m 1,8,-1
 -396 -288 l 1,9,-1
 -396 -224 l 1,10,-1
 -460 -224 l 1,11,-1
 -460 -288 l 1,8,-1
-396 -224 m 1,12,-1
 -332 -224 l 1,13,-1
 -332 -160 l 1,14,-1
 -396 -160 l 1,15,-1
 -396 -224 l 1,12,-1
-332 -160 m 1,16,-1
 -268 -160 l 1,17,-1
 -268 -96 l 1,18,-1
 -332 -96 l 1,19,-1
 -332 -160 l 1,16,-1
EndSplineSet
Validated: 5
EndChar

StartChar: F
Encoding: 70 70 27
Width: 896
GlyphClass: 2
Flags: W
LayerCount: 2
Fore
SplineSet
528 31 m 1,0,-1
 528 96 l 1,1,-1
 528 159 l 1,2,-1
 593 159 l 1,3,-1
 593 96 l 1,4,-1
 593 31 l 1,5,-1
 528 31 l 1,0,-1
400 31 m 1,6,-1
 337 31 l 1,7,-1
 337 96 l 1,8,-1
 400 96 l 1,9,-1
 400 159 l 1,10,-1
 400 222 l 1,11,-1
 463 222 l 1,12,-1
 528 222 l 1,13,-1
 528 159 l 1,14,-1
 463 159 l 1,15,-1
 463 96 l 1,16,-1
 463 31 l 1,17,-1
 400 31 l 1,6,-1
337 96 m 1,18,-1
 272 96 l 1,19,-1
 272 159 l 1,20,-1
 272 222 l 1,21,-1
 337 222 l 1,22,-1
 337 159 l 1,23,-1
 337 96 l 1,18,-1
404 243 m 1,24,-1
 404 307 l 1,25,-1
 468 307 l 1,26,-1
 468 243 l 1,27,-1
 404 243 l 1,24,-1
468 307 m 1,28,-1
 468 371 l 1,29,-1
 532 371 l 1,30,-1
 532 307 l 1,31,-1
 468 307 l 1,28,-1
404 307 m 1,32,-1
 340 307 l 1,33,-1
 340 371 l 1,34,-1
 404 371 l 1,35,-1
 404 307 l 1,32,-1
532 371 m 1,36,-1
 532 435 l 1,37,-1
 596 435 l 1,38,-1
 596 371 l 1,39,-1
 532 371 l 1,36,-1
340 371 m 1,40,-1
 276 371 l 1,41,-1
 276 435 l 1,42,-1
 340 435 l 1,43,-1
 340 371 l 1,40,-1
532 435 m 1,44,-1
 468 435 l 1,45,-1
 468 499 l 1,46,-1
 532 499 l 1,47,-1
 532 435 l 1,44,-1
340 435 m 1,48,-1
 340 499 l 1,49,-1
 404 499 l 1,50,-1
 404 435 l 1,51,-1
 340 435 l 1,48,-1
468 499 m 1,52,-1
 404 499 l 1,53,-1
 404 563 l 1,54,-1
 468 563 l 1,55,-1
 468 499 l 1,52,-1
EndSplineSet
Validated: 5
EndChar

StartChar: G
Encoding: 71 71 28
Width: 896
GlyphClass: 2
Flags: W
LayerCount: 2
Fore
SplineSet
544 194 m 1,0,-1
 544 258 l 1,1,-1
 608 258 l 1,2,-1
 608 194 l 1,3,-1
 544 194 l 1,0,-1
288 194 m 1,4,-1
 288 258 l 1,5,-1
 352 258 l 1,6,-1
 352 194 l 1,7,-1
 288 194 l 1,4,-1
544 258 m 1,8,-1
 480 258 l 1,9,-1
 480 322 l 1,10,-1
 544 322 l 1,11,-1
 544 258 l 1,8,-1
352 258 m 1,12,-1
 352 322 l 1,13,-1
 416 322 l 1,14,-1
 416 258 l 1,15,-1
 352 258 l 1,12,-1
480 322 m 1,16,-1
 416 322 l 1,17,-1
 416 386 l 1,18,-1
 480 386 l 1,19,-1
 480 322 l 1,16,-1
480 386 m 1,20,-1
 480 450 l 1,21,-1
 544 450 l 1,22,-1
 544 386 l 1,23,-1
 480 386 l 1,20,-1
416 386 m 1,24,-1
 352 386 l 1,25,-1
 352 450 l 1,26,-1
 416 450 l 1,27,-1
 416 386 l 1,24,-1
544 450 m 1,28,-1
 544 514 l 1,29,-1
 608 514 l 1,30,-1
 608 450 l 1,31,-1
 544 450 l 1,28,-1
352 450 m 1,32,-1
 288 450 l 1,33,-1
 288 514 l 1,34,-1
 352 514 l 1,35,-1
 352 450 l 1,32,-1
EndSplineSet
Validated: 5
EndChar

StartChar: H
Encoding: 72 72 29
Width: 896
GlyphClass: 2
Flags: W
LayerCount: 2
Fore
SplineSet
512 63 m 1,0,-1
 575 63 l 1,1,-1
 575 0 l 1,2,-1
 512 0 l 1,3,-1
 449 0 l 1,4,-1
 384 0 l 1,5,-1
 319 0 l 1,6,-1
 319 63 l 1,7,-1
 384 63 l 1,8,-1
 449 63 l 1,9,-1
 512 63 l 1,0,-1
575 63 m 1,10,-1
 575 128 l 1,11,-1
 640 128 l 1,12,-1
 640 63 l 1,13,-1
 575 63 l 1,10,-1
319 63 m 1,14,-1
 256 63 l 1,15,-1
 256 128 l 1,16,-1
 319 128 l 1,17,-1
 319 63 l 1,14,-1
575 128 m 1,18,-1
 512 128 l 1,19,-1
 449 128 l 1,20,-1
 449 193 l 1,21,-1
 512 193 l 1,22,-1
 575 193 l 1,23,-1
 575 128 l 1,18,-1
256 128 m 1,24,-1
 193 128 l 1,25,-1
 193 193 l 1,26,-1
 193 256 l 1,27,-1
 193 319 l 1,28,-1
 256 319 l 1,29,-1
 256 256 l 1,30,-1
 256 193 l 1,31,-1
 256 128 l 1,24,-1
449 193 m 1,32,-1
 384 193 l 1,33,-1
 384 256 l 1,34,-1
 449 256 l 1,35,-1
 449 193 l 1,32,-1
575 256 m 1,36,-1
 512 256 l 1,37,-1
 449 256 l 1,38,-1
 449 319 l 1,39,-1
 512 319 l 1,40,-1
 575 319 l 1,41,-1
 575 384 l 1,42,-1
 640 384 l 1,43,-1
 705 384 l 1,44,-1
 768 384 l 1,45,-1
 831 384 l 1,46,-1
 896 384 l 1,47,-1
 896 319 l 1,48,-1
 831 319 l 1,49,-1
 768 319 l 1,50,-1
 705 319 l 1,51,-1
 640 319 l 1,52,-1
 640 256 l 1,53,-1
 575 256 l 1,36,-1
256 319 m 1,54,-1
 256 384 l 1,55,-1
 193 384 l 1,56,-1
 128 384 l 1,57,-1
 128 319 l 1,58,-1
 63 319 l 1,59,-1
 0 319 l 1,60,-1
 0 384 l 1,61,-1
 63 384 l 1,62,-1
 128 384 l 1,63,-1
 128 449 l 1,64,-1
 193 449 l 1,65,-1
 256 449 l 1,66,-1
 319 449 l 1,67,-1
 384 449 l 1,68,-1
 449 449 l 1,69,-1
 512 449 l 1,70,-1
 575 449 l 1,71,-1
 575 384 l 1,72,-1
 512 384 l 1,73,-1
 449 384 l 1,74,-1
 384 384 l 1,75,-1
 319 384 l 1,76,-1
 319 319 l 1,77,-1
 256 319 l 1,54,-1
EndSplineSet
Validated: 5
EndChar

StartChar: J
Encoding: 74 74 30
Width: 896
GlyphClass: 2
Flags: W
LayerCount: 2
Fore
SplineSet
344 193 m 1,0,-1
 344 256 l 1,1,-1
 280 256 l 1,2,-1
 280 193 l 1,3,-1
 344 193 l 1,0,-1
344 256 m 1,4,-1
 408 256 l 1,5,-1
 408 319 l 1,6,-1
 344 319 l 1,7,-1
 344 256 l 1,4,-1
408 319 m 1,8,-1
 472 319 l 1,9,-1
 472 384 l 1,10,-1
 408 384 l 1,11,-1
 408 319 l 1,8,-1
472 384 m 1,12,-1
 536 384 l 1,13,-1
 536 449 l 1,14,-1
 472 449 l 1,15,-1
 472 384 l 1,12,-1
536 449 m 1,16,-1
 600 449 l 1,17,-1
 600 512 l 1,18,-1
 536 512 l 1,19,-1
 536 449 l 1,16,-1
EndSplineSet
Validated: 5
EndChar

StartChar: O
Encoding: 79 79 31
Width: 0
GlyphClass: 2
Flags: W
LayerCount: 2
Fore
SplineSet
-384 -408 m 1,0,-1
 -384 -344 l 1,1,-1
 -449 -344 l 1,2,-1
 -449 -408 l 1,3,-1
 -384 -408 l 1,0,-1
-449 -344 m 1,4,-1
 -449 -280 l 1,5,-1
 -512 -280 l 1,6,-1
 -512 -344 l 1,7,-1
 -449 -344 l 1,4,-1
-384 -344 m 1,8,-1
 -319 -344 l 1,9,-1
 -319 -280 l 1,10,-1
 -384 -280 l 1,11,-1
 -384 -344 l 1,8,-1
-512 -280 m 1,12,-1
 -512 -216 l 1,13,-1
 -575 -216 l 1,14,-1
 -575 -280 l 1,15,-1
 -512 -280 l 1,12,-1
-319 -280 m 1,16,-1
 -256 -280 l 1,17,-1
 -256 -216 l 1,18,-1
 -319 -216 l 1,19,-1
 -319 -280 l 1,16,-1
-512 -216 m 1,20,-1
 -449 -216 l 1,21,-1
 -449 -152 l 1,22,-1
 -512 -152 l 1,23,-1
 -512 -216 l 1,20,-1
-319 -216 m 1,24,-1
 -319 -152 l 1,25,-1
 -384 -152 l 1,26,-1
 -384 -216 l 1,27,-1
 -319 -216 l 1,24,-1
-449 -152 m 1,28,-1
 -384 -152 l 1,29,-1
 -384 -88 l 1,30,-1
 -449 -88 l 1,31,-1
 -449 -152 l 1,28,-1
EndSplineSet
Validated: 5
EndChar

StartChar: R
Encoding: 82 82 32
Width: 896
GlyphClass: 2
Flags: W
LayerCount: 2
Fore
SplineSet
512 128 m 1,0,-1
 575 128 l 1,1,-1
 575 63 l 1,2,-1
 512 63 l 1,3,-1
 449 63 l 1,4,-1
 384 63 l 1,5,-1
 319 63 l 1,6,-1
 256 63 l 1,7,-1
 256 128 l 1,8,-1
 319 128 l 1,9,-1
 384 128 l 1,10,-1
 449 128 l 1,11,-1
 512 128 l 1,0,-1
575 128 m 1,12,-1
 575 193 l 1,13,-1
 640 193 l 1,14,-1
 640 128 l 1,15,-1
 575 128 l 1,12,-1
256 128 m 1,16,-1
 193 128 l 1,17,-1
 193 193 l 1,18,-1
 256 193 l 1,19,-1
 256 128 l 1,16,-1
640 193 m 1,20,-1
 640 256 l 1,21,-1
 705 256 l 1,22,-1
 705 193 l 1,23,-1
 640 193 l 1,20,-1
193 193 m 1,24,-1
 128 193 l 1,25,-1
 128 256 l 1,26,-1
 128 319 l 1,27,-1
 63 319 l 1,28,-1
 0 319 l 1,29,-1
 0 384 l 1,30,-1
 63 384 l 1,31,-1
 128 384 l 1,32,-1
 128 449 l 1,33,-1
 128 512 l 1,34,-1
 193 512 l 1,35,-1
 193 449 l 1,36,-1
 193 384 l 1,37,-1
 256 384 l 1,38,-1
 319 384 l 1,39,-1
 319 449 l 1,40,-1
 319 512 l 1,41,-1
 384 512 l 1,42,-1
 384 449 l 1,43,-1
 384 384 l 1,44,-1
 384 319 l 1,45,-1
 319 319 l 1,46,-1
 256 319 l 1,47,-1
 193 319 l 1,48,-1
 193 256 l 1,49,-1
 193 193 l 1,24,-1
640 256 m 1,50,-1
 575 256 l 1,51,-1
 575 319 l 1,52,-1
 640 319 l 1,53,-1
 640 256 l 1,50,-1
831 384 m 1,54,-1
 896 384 l 1,55,-1
 896 319 l 1,56,-1
 831 319 l 1,57,-1
 768 319 l 1,58,-1
 705 319 l 1,59,-1
 705 384 l 1,60,-1
 768 384 l 1,61,-1
 831 384 l 1,54,-1
575 319 m 1,62,-1
 512 319 l 1,63,-1
 512 384 l 1,64,-1
 575 384 l 1,65,-1
 575 319 l 1,62,-1
705 384 m 1,66,-1
 640 384 l 1,67,-1
 640 449 l 1,68,-1
 705 449 l 1,69,-1
 705 384 l 1,66,-1
512 384 m 1,70,-1
 449 384 l 1,71,-1
 449 449 l 1,72,-1
 512 449 l 1,73,-1
 512 384 l 1,70,-1
640 449 m 1,74,-1
 575 449 l 1,75,-1
 512 449 l 1,76,-1
 512 512 l 1,77,-1
 575 512 l 1,78,-1
 640 512 l 1,79,-1
 640 449 l 1,74,-1
319 512 m 1,80,-1
 256 512 l 1,81,-1
 193 512 l 1,82,-1
 193 575 l 1,83,-1
 256 575 l 1,84,-1
 319 575 l 1,85,-1
 319 512 l 1,80,-1
EndSplineSet
Validated: 5
EndChar

StartChar: S
Encoding: 83 83 33
Width: 896
GlyphClass: 2
Flags: W
LayerCount: 2
Fore
SplineSet
575 256 m 1,0,-1
 575 319 l 1,1,-1
 640 319 l 1,2,-1
 640 256 l 1,3,-1
 575 256 l 1,0,-1
640 63 m 1,4,-1
 575 63 l 1,5,-1
 512 63 l 1,6,-1
 449 63 l 1,7,-1
 384 63 l 1,8,-1
 319 63 l 1,9,-1
 319 128 l 1,10,-1
 384 128 l 1,11,-1
 449 128 l 1,12,-1
 512 128 l 1,13,-1
 512 193 l 1,14,-1
 575 193 l 1,15,-1
 640 193 l 1,16,-1
 640 128 l 1,17,-1
 705 128 l 1,18,-1
 705 63 l 1,19,-1
 640 63 l 1,4,-1
319 128 m 1,20,-1
 256 128 l 1,21,-1
 193 128 l 1,22,-1
 193 193 l 1,23,-1
 256 193 l 1,24,-1
 319 193 l 1,25,-1
 319 128 l 1,20,-1
512 193 m 1,26,-1
 449 193 l 1,27,-1
 384 193 l 1,28,-1
 384 256 l 1,29,-1
 449 256 l 1,30,-1
 512 256 l 1,31,-1
 512 193 l 1,26,-1
193 193 m 1,32,-1
 128 193 l 1,33,-1
 128 256 l 1,34,-1
 193 256 l 1,35,-1
 193 193 l 1,32,-1
384 256 m 1,36,-1
 319 256 l 1,37,-1
 319 319 l 1,38,-1
 384 319 l 1,39,-1
 384 256 l 1,36,-1
128 256 m 1,40,-1
 63 256 l 1,41,-1
 63 319 l 1,42,-1
 0 319 l 1,43,-1
 0 384 l 1,44,-1
 63 384 l 1,45,-1
 128 384 l 1,46,-1
 128 319 l 1,47,-1
 128 256 l 1,40,-1
831 384 m 1,48,-1
 896 384 l 1,49,-1
 896 319 l 1,50,-1
 831 319 l 1,51,-1
 768 319 l 1,52,-1
 705 319 l 1,53,-1
 640 319 l 1,54,-1
 640 384 l 1,55,-1
 575 384 l 1,56,-1
 575 319 l 1,57,-1
 512 319 l 1,58,-1
 512 384 l 1,59,-1
 575 384 l 1,60,-1
 575 449 l 1,61,-1
 640 449 l 1,62,-1
 640 512 l 1,63,-1
 640 575 l 1,64,-1
 705 575 l 1,65,-1
 705 512 l 1,66,-1
 705 449 l 1,67,-1
 705 384 l 1,68,-1
 768 384 l 1,69,-1
 831 384 l 1,48,-1
319 319 m 1,70,-1
 256 319 l 1,71,-1
 256 384 l 1,72,-1
 319 384 l 1,73,-1
 319 319 l 1,70,-1
256 384 m 1,74,-1
 193 384 l 1,75,-1
 193 449 l 1,76,-1
 193 512 l 1,77,-1
 193 575 l 1,78,-1
 256 575 l 1,79,-1
 256 512 l 1,80,-1
 256 449 l 1,81,-1
 256 384 l 1,74,-1
640 575 m 1,82,-1
 575 575 l 1,83,-1
 512 575 l 1,84,-1
 449 575 l 1,85,-1
 384 575 l 1,86,-1
 319 575 l 1,87,-1
 256 575 l 1,88,-1
 256 640 l 1,89,-1
 319 640 l 1,90,-1
 384 640 l 1,91,-1
 449 640 l 1,92,-1
 512 640 l 1,93,-1
 575 640 l 1,94,-1
 640 640 l 1,95,-1
 640 575 l 1,82,-1
EndSplineSet
Validated: 5
EndChar

StartChar: Z
Encoding: 90 90 34
Width: 896
GlyphClass: 2
Flags: W
LayerCount: 2
Fore
SplineSet
512 128 m 1,0,-1
 575 128 l 1,1,-1
 575 63 l 1,2,-1
 512 63 l 1,3,-1
 449 63 l 1,4,-1
 384 63 l 1,5,-1
 319 63 l 1,6,-1
 256 63 l 1,7,-1
 256 128 l 1,8,-1
 319 128 l 1,9,-1
 384 128 l 1,10,-1
 449 128 l 1,11,-1
 512 128 l 1,0,-1
575 128 m 1,12,-1
 575 193 l 1,13,-1
 640 193 l 1,14,-1
 640 128 l 1,15,-1
 575 128 l 1,12,-1
256 128 m 1,16,-1
 193 128 l 1,17,-1
 193 193 l 1,18,-1
 256 193 l 1,19,-1
 256 128 l 1,16,-1
640 193 m 1,20,-1
 640 256 l 1,21,-1
 640 319 l 1,22,-1
 705 319 l 1,23,-1
 705 256 l 1,24,-1
 705 193 l 1,25,-1
 640 193 l 1,20,-1
193 193 m 1,26,-1
 128 193 l 1,27,-1
 128 256 l 1,28,-1
 128 319 l 1,29,-1
 63 319 l 1,30,-1
 0 319 l 1,31,-1
 0 384 l 1,32,-1
 63 384 l 1,33,-1
 128 384 l 1,34,-1
 128 449 l 1,35,-1
 128 512 l 1,36,-1
 193 512 l 1,37,-1
 193 449 l 1,38,-1
 193 384 l 1,39,-1
 256 384 l 1,40,-1
 319 384 l 1,41,-1
 319 449 l 1,42,-1
 319 512 l 1,43,-1
 384 512 l 1,44,-1
 384 449 l 1,45,-1
 384 384 l 1,46,-1
 384 319 l 1,47,-1
 319 319 l 1,48,-1
 256 319 l 1,49,-1
 193 319 l 1,50,-1
 193 256 l 1,51,-1
 193 193 l 1,26,-1
831 384 m 1,52,-1
 896 384 l 1,53,-1
 896 319 l 1,54,-1
 831 319 l 1,55,-1
 768 319 l 1,56,-1
 705 319 l 1,57,-1
 705 384 l 1,58,-1
 768 384 l 1,59,-1
 831 384 l 1,52,-1
319 512 m 1,60,-1
 256 512 l 1,61,-1
 193 512 l 1,62,-1
 193 575 l 1,63,-1
 256 575 l 1,64,-1
 319 575 l 1,65,-1
 319 512 l 1,60,-1
EndSplineSet
Validated: 5
EndChar

StartChar: a
Encoding: 97 97 35
Width: 0
GlyphClass: 2
Flags: W
LayerCount: 2
Fore
SplineSet
-512 -97 m 5,0,-1
 -575 -97 l 5,1,-1
 -575 -161 l 5,2,-1
 -512 -161 l 5,3,-1
 -449 -161 l 5,4,-1
 -384 -161 l 5,5,-1
 -319 -161 l 5,6,-1
 -256 -161 l 5,7,-1
 -256 -97 l 5,8,-1
 -319 -97 l 5,9,-1
 -384 -97 l 5,10,-1
 -449 -97 l 5,11,-1
 -512 -97 l 5,0,-1
EndSplineSet
Validated: 9
EndChar

StartChar: b
Encoding: 98 98 36
Width: 896
GlyphClass: 2
Flags: W
LayerCount: 2
Fore
SplineSet
831 384 m 1,0,-1
 896 384 l 1,1,-1
 896 319 l 1,2,-1
 831 319 l 1,3,-1
 768 319 l 1,4,-1
 705 319 l 1,5,-1
 640 319 l 1,6,-1
 575 319 l 1,7,-1
 512 319 l 1,8,-1
 449 319 l 1,9,-1
 384 319 l 1,10,-1
 319 319 l 1,11,-1
 256 319 l 1,12,-1
 193 319 l 1,13,-1
 128 319 l 1,14,-1
 63 319 l 1,15,-1
 0 319 l 1,16,-1
 0 384 l 1,17,-1
 63 384 l 1,18,-1
 128 384 l 1,19,-1
 193 384 l 1,20,-1
 193 449 l 1,21,-1
 193 512 l 1,22,-1
 193 575 l 1,23,-1
 193 640 l 1,24,-1
 256 640 l 1,25,-1
 319 640 l 1,26,-1
 319 575 l 1,27,-1
 384 575 l 1,28,-1
 384 512 l 1,29,-1
 319 512 l 1,30,-1
 319 575 l 1,31,-1
 256 575 l 1,32,-1
 256 512 l 1,33,-1
 256 449 l 1,34,-1
 256 384 l 1,35,-1
 319 384 l 1,36,-1
 384 384 l 1,37,-1
 449 384 l 1,38,-1
 449 449 l 1,39,-1
 384 449 l 1,40,-1
 384 512 l 1,41,-1
 449 512 l 1,42,-1
 449 575 l 1,43,-1
 449 640 l 1,44,-1
 512 640 l 1,45,-1
 575 640 l 1,46,-1
 575 575 l 1,47,-1
 640 575 l 1,48,-1
 640 512 l 1,49,-1
 705 512 l 1,50,-1
 705 449 l 1,51,-1
 640 449 l 1,52,-1
 640 512 l 1,53,-1
 575 512 l 1,54,-1
 575 575 l 1,55,-1
 512 575 l 1,56,-1
 512 512 l 1,57,-1
 512 449 l 1,58,-1
 512 384 l 1,59,-1
 575 384 l 1,60,-1
 640 384 l 1,61,-1
 705 384 l 1,62,-1
 705 449 l 1,63,-1
 768 449 l 1,64,-1
 768 384 l 1,65,-1
 831 384 l 1,0,-1
EndSplineSet
Validated: 5
EndChar

StartChar: d
Encoding: 100 100 37
Width: 896
GlyphClass: 2
Flags: W
LayerCount: 2
Fore
SplineSet
831 384 m 1,0,-1
 896 384 l 1,1,-1
 896 319 l 1,2,-1
 831 319 l 1,3,-1
 768 319 l 1,4,-1
 705 319 l 1,5,-1
 640 319 l 1,6,-1
 640 384 l 1,7,-1
 640 449 l 1,8,-1
 705 449 l 1,9,-1
 705 384 l 1,10,-1
 768 384 l 1,11,-1
 831 384 l 1,0,-1
449 319 m 1,12,-1
 384 319 l 1,13,-1
 319 319 l 1,14,-1
 256 319 l 1,15,-1
 193 319 l 1,16,-1
 128 319 l 1,17,-1
 63 319 l 1,18,-1
 0 319 l 1,19,-1
 0 384 l 1,20,-1
 63 384 l 1,21,-1
 128 384 l 1,22,-1
 128 449 l 1,23,-1
 193 449 l 1,24,-1
 256 449 l 1,25,-1
 319 449 l 1,26,-1
 384 449 l 1,27,-1
 449 449 l 1,28,-1
 449 384 l 1,29,-1
 512 384 l 1,30,-1
 512 319 l 1,31,-1
 449 319 l 1,12,-1
640 449 m 1,32,-1
 575 449 l 1,33,-1
 575 512 l 1,34,-1
 640 512 l 1,35,-1
 640 449 l 1,32,-1
128 449 m 1,36,-1
 63 449 l 1,37,-1
 63 512 l 1,38,-1
 63 575 l 1,39,-1
 63 640 l 1,40,-1
 128 640 l 1,41,-1
 128 575 l 1,42,-1
 128 512 l 1,43,-1
 128 449 l 1,36,-1
575 512 m 1,44,-1
 512 512 l 1,45,-1
 512 575 l 1,46,-1
 575 575 l 1,47,-1
 575 512 l 1,44,-1
512 575 m 1,48,-1
 449 575 l 1,49,-1
 449 640 l 1,50,-1
 512 640 l 1,51,-1
 512 575 l 1,48,-1
449 640 m 1,52,-1
 384 640 l 1,53,-1
 319 640 l 1,54,-1
 256 640 l 1,55,-1
 193 640 l 1,56,-1
 128 640 l 1,57,-1
 128 705 l 1,58,-1
 193 705 l 1,59,-1
 256 705 l 1,60,-1
 319 705 l 1,61,-1
 384 705 l 1,62,-1
 449 705 l 1,63,-1
 449 640 l 1,52,-1
EndSplineSet
Validated: 5
EndChar

StartChar: e
Encoding: 101 101 38
Width: 0
GlyphClass: 2
Flags: W
LayerCount: 2
Fore
SplineSet
-300 -404 m 5,0,-1
 -300 -340 l 5,1,-1
 -364 -340 l 5,2,-1
 -364 -404 l 5,3,-1
 -300 -404 l 5,0,-1
-364 -340 m 5,4,-1
 -364 -276 l 5,5,-1
 -428 -276 l 5,6,-1
 -428 -340 l 5,7,-1
 -364 -340 l 5,4,-1
-428 -276 m 5,8,-1
 -428 -212 l 5,9,-1
 -492 -212 l 5,10,-1
 -492 -276 l 5,11,-1
 -428 -276 l 5,8,-1
-492 -212 m 5,12,-1
 -492 -148 l 5,13,-1
 -556 -148 l 5,14,-1
 -556 -212 l 5,15,-1
 -492 -212 l 5,12,-1
-556 -148 m 5,16,-1
 -556 -84 l 5,17,-1
 -620 -84 l 5,18,-1
 -620 -148 l 5,19,-1
 -556 -148 l 5,16,-1
EndSplineSet
Validated: 5
EndChar

StartChar: f
Encoding: 102 102 39
Width: 896
GlyphClass: 2
Flags: W
LayerCount: 2
Fore
SplineSet
640 63 m 1,0,-1
 575 63 l 1,1,-1
 512 63 l 1,2,-1
 449 63 l 1,3,-1
 384 63 l 1,4,-1
 319 63 l 1,5,-1
 319 128 l 1,6,-1
 384 128 l 1,7,-1
 449 128 l 1,8,-1
 512 128 l 1,9,-1
 512 193 l 1,10,-1
 575 193 l 1,11,-1
 640 193 l 1,12,-1
 640 128 l 1,13,-1
 705 128 l 1,14,-1
 705 63 l 1,15,-1
 640 63 l 1,0,-1
319 128 m 1,16,-1
 256 128 l 1,17,-1
 193 128 l 1,18,-1
 193 193 l 1,19,-1
 256 193 l 1,20,-1
 319 193 l 1,21,-1
 319 128 l 1,16,-1
512 193 m 1,22,-1
 449 193 l 1,23,-1
 384 193 l 1,24,-1
 384 256 l 1,25,-1
 449 256 l 1,26,-1
 512 256 l 1,27,-1
 512 193 l 1,22,-1
193 193 m 1,28,-1
 128 193 l 1,29,-1
 128 256 l 1,30,-1
 193 256 l 1,31,-1
 193 193 l 1,28,-1
384 256 m 1,32,-1
 319 256 l 1,33,-1
 319 319 l 1,34,-1
 384 319 l 1,35,-1
 384 256 l 1,32,-1
128 256 m 1,36,-1
 63 256 l 1,37,-1
 63 319 l 1,38,-1
 0 319 l 1,39,-1
 0 384 l 1,40,-1
 63 384 l 1,41,-1
 128 384 l 1,42,-1
 128 319 l 1,43,-1
 128 256 l 1,36,-1
831 384 m 1,44,-1
 896 384 l 1,45,-1
 896 319 l 1,46,-1
 831 319 l 1,47,-1
 768 319 l 1,48,-1
 705 319 l 1,49,-1
 705 384 l 1,50,-1
 705 449 l 1,51,-1
 768 449 l 1,52,-1
 768 384 l 1,53,-1
 831 384 l 1,44,-1
319 319 m 1,54,-1
 256 319 l 1,55,-1
 256 384 l 1,56,-1
 319 384 l 1,57,-1
 319 319 l 1,54,-1
256 384 m 1,58,-1
 193 384 l 1,59,-1
 193 449 l 1,60,-1
 193 512 l 1,61,-1
 193 575 l 1,62,-1
 256 575 l 1,63,-1
 256 512 l 1,64,-1
 256 449 l 1,65,-1
 256 384 l 1,58,-1
705 449 m 1,66,-1
 640 449 l 1,67,-1
 640 512 l 1,68,-1
 705 512 l 1,69,-1
 705 449 l 1,66,-1
640 512 m 1,70,-1
 575 512 l 1,71,-1
 575 575 l 1,72,-1
 640 575 l 1,73,-1
 640 512 l 1,70,-1
575 575 m 1,74,-1
 512 575 l 1,75,-1
 449 575 l 1,76,-1
 384 575 l 1,77,-1
 319 575 l 1,78,-1
 256 575 l 1,79,-1
 256 640 l 1,80,-1
 319 640 l 1,81,-1
 384 640 l 1,82,-1
 449 640 l 1,83,-1
 512 640 l 1,84,-1
 575 640 l 1,85,-1
 575 575 l 1,74,-1
EndSplineSet
Validated: 5
EndChar

StartChar: g
Encoding: 103 103 40
Width: 896
GlyphClass: 2
Flags: W
LayerCount: 2
Fore
SplineSet
449 128 m 1,0,-1
 384 128 l 1,1,-1
 319 128 l 1,2,-1
 256 128 l 1,3,-1
 256 193 l 1,4,-1
 319 193 l 1,5,-1
 384 193 l 1,6,-1
 449 193 l 1,7,-1
 449 256 l 1,8,-1
 449 319 l 1,9,-1
 384 319 l 1,10,-1
 319 319 l 1,11,-1
 319 384 l 1,12,-1
 256 384 l 1,13,-1
 256 449 l 1,14,-1
 193 449 l 1,15,-1
 193 512 l 1,16,-1
 193 575 l 1,17,-1
 256 575 l 1,18,-1
 256 640 l 1,19,-1
 319 640 l 1,20,-1
 384 640 l 1,21,-1
 449 640 l 1,22,-1
 512 640 l 1,23,-1
 512 575 l 1,24,-1
 512 512 l 1,25,-1
 512 449 l 1,26,-1
 512 384 l 1,27,-1
 575 384 l 1,28,-1
 640 384 l 1,29,-1
 705 384 l 1,30,-1
 768 384 l 1,31,-1
 831 384 l 1,32,-1
 896 384 l 1,33,-1
 896 319 l 1,34,-1
 831 319 l 1,35,-1
 768 319 l 1,36,-1
 705 319 l 1,37,-1
 640 319 l 1,38,-1
 575 319 l 1,39,-1
 512 319 l 1,40,-1
 512 256 l 1,41,-1
 512 193 l 1,42,-1
 512 128 l 1,43,-1
 449 128 l 1,0,-1
256 193 m 1,44,-1
 193 193 l 1,45,-1
 193 256 l 1,46,-1
 256 256 l 1,47,-1
 256 193 l 1,44,-1
193 256 m 1,48,-1
 128 256 l 1,49,-1
 128 319 l 1,50,-1
 193 319 l 1,51,-1
 193 256 l 1,48,-1
384 384 m 1,52,-1
 449 384 l 1,53,-1
 449 449 l 1,54,-1
 449 512 l 1,55,-1
 449 575 l 1,56,-1
 384 575 l 1,57,-1
 319 575 l 1,58,-1
 256 575 l 1,59,-1
 256 512 l 1,60,-1
 256 449 l 1,61,-1
 319 449 l 1,62,-1
 319 384 l 1,63,-1
 384 384 l 1,52,-1
128 319 m 1,64,-1
 63 319 l 1,65,-1
 0 319 l 1,66,-1
 0 384 l 1,67,-1
 63 384 l 1,68,-1
 128 384 l 1,69,-1
 128 319 l 1,64,-1
EndSplineSet
Validated: 5
EndChar

StartChar: h
Encoding: 104 104 41
Width: 896
GlyphClass: 2
Flags: W
LayerCount: 2
Fore
SplineSet
512 63 m 1,0,-1
 449 63 l 1,1,-1
 449 128 l 1,2,-1
 449 193 l 1,3,-1
 384 193 l 1,4,-1
 384 128 l 1,5,-1
 319 128 l 1,6,-1
 319 193 l 1,7,-1
 384 193 l 1,8,-1
 384 256 l 1,9,-1
 449 256 l 1,10,-1
 449 319 l 1,11,-1
 384 319 l 1,12,-1
 319 319 l 1,13,-1
 256 319 l 1,14,-1
 256 256 l 1,15,-1
 256 193 l 1,16,-1
 256 128 l 1,17,-1
 319 128 l 1,18,-1
 319 63 l 1,19,-1
 256 63 l 1,20,-1
 193 63 l 1,21,-1
 193 128 l 1,22,-1
 193 193 l 1,23,-1
 193 256 l 1,24,-1
 193 319 l 1,25,-1
 128 319 l 1,26,-1
 63 319 l 1,27,-1
 0 319 l 1,28,-1
 0 384 l 1,29,-1
 63 384 l 1,30,-1
 128 384 l 1,31,-1
 193 384 l 1,32,-1
 256 384 l 1,33,-1
 319 384 l 1,34,-1
 384 384 l 1,35,-1
 449 384 l 1,36,-1
 512 384 l 1,37,-1
 575 384 l 1,38,-1
 640 384 l 1,39,-1
 705 384 l 1,40,-1
 768 384 l 1,41,-1
 831 384 l 1,42,-1
 896 384 l 1,43,-1
 896 319 l 1,44,-1
 831 319 l 1,45,-1
 768 319 l 1,46,-1
 768 256 l 1,47,-1
 705 256 l 1,48,-1
 705 193 l 1,49,-1
 640 193 l 1,50,-1
 640 128 l 1,51,-1
 575 128 l 1,52,-1
 575 193 l 1,53,-1
 640 193 l 1,54,-1
 640 256 l 1,55,-1
 705 256 l 1,56,-1
 705 319 l 1,57,-1
 640 319 l 1,58,-1
 575 319 l 1,59,-1
 512 319 l 1,60,-1
 512 256 l 1,61,-1
 512 193 l 1,62,-1
 512 128 l 1,63,-1
 575 128 l 1,64,-1
 575 63 l 1,65,-1
 512 63 l 1,0,-1
EndSplineSet
Validated: 5
EndChar

StartChar: i
Encoding: 105 105 42
Width: 0
GlyphClass: 2
Flags: W
LayerCount: 2
Fore
SplineSet
-384 -404 m 1,0,-1
 -384 -340 l 1,1,-1
 -384 -276 l 1,2,-1
 -384 -212 l 1,3,-1
 -384 -148 l 1,4,-1
 -384 -84 l 1,5,-1
 -449 -84 l 1,6,-1
 -449 -148 l 1,7,-1
 -449 -212 l 1,8,-1
 -449 -276 l 1,9,-1
 -449 -340 l 1,10,-1
 -449 -404 l 1,11,-1
 -384 -404 l 1,0,-1
EndSplineSet
Validated: 9
EndChar

StartChar: j
Encoding: 106 106 43
Width: 896
GlyphClass: 2
Flags: W
LayerCount: 2
Fore
SplineSet
319 63 m 1,0,-1
 256 63 l 1,1,-1
 256 128 l 1,2,-1
 256 193 l 1,3,-1
 256 256 l 1,4,-1
 256 319 l 1,5,-1
 193 319 l 1,6,-1
 128 319 l 1,7,-1
 63 319 l 1,8,-1
 0 319 l 1,9,-1
 0 384 l 1,10,-1
 63 384 l 1,11,-1
 128 384 l 1,12,-1
 193 384 l 1,13,-1
 256 384 l 1,14,-1
 319 384 l 1,15,-1
 384 384 l 1,16,-1
 449 384 l 1,17,-1
 512 384 l 1,18,-1
 575 384 l 1,19,-1
 640 384 l 1,20,-1
 705 384 l 1,21,-1
 768 384 l 1,22,-1
 831 384 l 1,23,-1
 896 384 l 1,24,-1
 896 319 l 1,25,-1
 831 319 l 1,26,-1
 768 319 l 1,27,-1
 705 319 l 1,28,-1
 640 319 l 1,29,-1
 575 319 l 1,30,-1
 575 256 l 1,31,-1
 512 256 l 1,32,-1
 512 193 l 1,33,-1
 449 193 l 1,34,-1
 449 128 l 1,35,-1
 384 128 l 1,36,-1
 384 193 l 1,37,-1
 449 193 l 1,38,-1
 449 256 l 1,39,-1
 512 256 l 1,40,-1
 512 319 l 1,41,-1
 449 319 l 1,42,-1
 384 319 l 1,43,-1
 319 319 l 1,44,-1
 319 256 l 1,45,-1
 319 193 l 1,46,-1
 319 128 l 1,47,-1
 384 128 l 1,48,-1
 384 63 l 1,49,-1
 319 63 l 1,0,-1
EndSplineSet
Validated: 5
EndChar

StartChar: k
Encoding: 107 107 44
Width: 896
GlyphClass: 2
Flags: W
LayerCount: 2
Fore
SplineSet
319 193 m 1,0,-1
 384 193 l 1,1,-1
 384 128 l 1,2,-1
 319 128 l 1,3,-1
 256 128 l 1,4,-1
 256 193 l 1,5,-1
 319 193 l 1,0,-1
384 193 m 1,6,-1
 384 256 l 1,7,-1
 449 256 l 1,8,-1
 449 193 l 1,9,-1
 384 193 l 1,6,-1
256 193 m 1,10,-1
 193 193 l 1,11,-1
 193 256 l 1,12,-1
 256 256 l 1,13,-1
 256 193 l 1,10,-1
449 256 m 1,14,-1
 449 319 l 1,15,-1
 384 319 l 1,16,-1
 319 319 l 1,17,-1
 319 384 l 1,18,-1
 384 384 l 1,19,-1
 449 384 l 1,20,-1
 449 449 l 1,21,-1
 449 512 l 1,22,-1
 449 575 l 1,23,-1
 512 575 l 1,24,-1
 512 512 l 1,25,-1
 512 449 l 1,26,-1
 512 384 l 1,27,-1
 575 384 l 1,28,-1
 640 384 l 1,29,-1
 705 384 l 1,30,-1
 768 384 l 1,31,-1
 831 384 l 1,32,-1
 896 384 l 1,33,-1
 896 319 l 1,34,-1
 831 319 l 1,35,-1
 768 319 l 1,36,-1
 705 319 l 1,37,-1
 640 319 l 1,38,-1
 575 319 l 1,39,-1
 512 319 l 1,40,-1
 512 256 l 1,41,-1
 449 256 l 1,14,-1
193 256 m 1,42,-1
 128 256 l 1,43,-1
 128 319 l 1,44,-1
 193 319 l 1,45,-1
 193 256 l 1,42,-1
128 319 m 1,46,-1
 63 319 l 1,47,-1
 0 319 l 1,48,-1
 0 384 l 1,49,-1
 63 384 l 1,50,-1
 128 384 l 1,51,-1
 128 319 l 1,46,-1
319 384 m 1,52,-1
 256 384 l 1,53,-1
 256 449 l 1,54,-1
 319 449 l 1,55,-1
 319 384 l 1,52,-1
256 449 m 1,56,-1
 193 449 l 1,57,-1
 193 512 l 1,58,-1
 193 575 l 1,59,-1
 256 575 l 1,60,-1
 256 512 l 1,61,-1
 256 449 l 1,56,-1
449 575 m 1,62,-1
 384 575 l 1,63,-1
 319 575 l 1,64,-1
 256 575 l 1,65,-1
 256 640 l 1,66,-1
 319 640 l 1,67,-1
 384 640 l 1,68,-1
 449 640 l 1,69,-1
 449 575 l 1,62,-1
EndSplineSet
Validated: 5
EndChar

StartChar: l
Encoding: 108 108 45
Width: 896
GlyphClass: 2
Flags: W
LayerCount: 2
Fore
SplineSet
831 384 m 1,0,-1
 896 384 l 1,1,-1
 896 319 l 1,2,-1
 831 319 l 1,3,-1
 768 319 l 1,4,-1
 705 319 l 1,5,-1
 640 319 l 1,6,-1
 640 384 l 1,7,-1
 705 384 l 1,8,-1
 768 384 l 1,9,-1
 831 384 l 1,0,-1
449 319 m 1,10,-1
 384 319 l 1,11,-1
 319 319 l 1,12,-1
 256 319 l 1,13,-1
 193 319 l 1,14,-1
 128 319 l 1,15,-1
 63 319 l 1,16,-1
 0 319 l 1,17,-1
 0 384 l 1,18,-1
 63 384 l 1,19,-1
 128 384 l 1,20,-1
 193 384 l 1,21,-1
 256 384 l 1,22,-1
 319 384 l 1,23,-1
 384 384 l 1,24,-1
 449 384 l 1,25,-1
 449 449 l 1,26,-1
 449 512 l 1,27,-1
 384 512 l 1,28,-1
 384 575 l 1,29,-1
 449 575 l 1,30,-1
 449 640 l 1,31,-1
 512 640 l 1,32,-1
 512 575 l 1,33,-1
 512 512 l 1,34,-1
 575 512 l 1,35,-1
 575 449 l 1,36,-1
 640 449 l 1,37,-1
 640 384 l 1,38,-1
 575 384 l 1,39,-1
 575 449 l 1,40,-1
 512 449 l 1,41,-1
 512 384 l 1,42,-1
 512 319 l 1,43,-1
 449 319 l 1,10,-1
384 575 m 1,44,-1
 319 575 l 1,45,-1
 319 640 l 1,46,-1
 384 640 l 1,47,-1
 384 575 l 1,44,-1
449 640 m 1,48,-1
 384 640 l 1,49,-1
 384 705 l 1,50,-1
 449 705 l 1,51,-1
 449 640 l 1,48,-1
EndSplineSet
Validated: 5
EndChar

StartChar: m
Encoding: 109 109 46
Width: 896
GlyphClass: 2
Flags: W
LayerCount: 2
Fore
SplineSet
831 319 m 1,0,-1
 831 384 l 1,1,-1
 896 384 l 1,2,-1
 896 319 l 1,3,-1
 831 319 l 1,0,-1
512 128 m 1,4,-1
 575 128 l 1,5,-1
 575 63 l 1,6,-1
 512 63 l 1,7,-1
 449 63 l 1,8,-1
 384 63 l 1,9,-1
 319 63 l 1,10,-1
 319 128 l 1,11,-1
 384 128 l 1,12,-1
 449 128 l 1,13,-1
 512 128 l 1,4,-1
575 128 m 1,14,-1
 575 193 l 1,15,-1
 640 193 l 1,16,-1
 640 128 l 1,17,-1
 575 128 l 1,14,-1
319 128 m 1,18,-1
 256 128 l 1,19,-1
 256 193 l 1,20,-1
 319 193 l 1,21,-1
 319 128 l 1,18,-1
575 193 m 1,22,-1
 512 193 l 1,23,-1
 449 193 l 1,24,-1
 384 193 l 1,25,-1
 384 256 l 1,26,-1
 449 256 l 1,27,-1
 512 256 l 1,28,-1
 575 256 l 1,29,-1
 575 193 l 1,22,-1
256 193 m 1,30,-1
 193 193 l 1,31,-1
 193 256 l 1,32,-1
 256 256 l 1,33,-1
 256 193 l 1,30,-1
384 256 m 1,34,-1
 319 256 l 1,35,-1
 319 319 l 1,36,-1
 384 319 l 1,37,-1
 384 256 l 1,34,-1
193 256 m 1,38,-1
 128 256 l 1,39,-1
 128 319 l 1,40,-1
 193 319 l 1,41,-1
 193 256 l 1,38,-1
512 384 m 1,42,-1
 575 384 l 1,43,-1
 575 319 l 1,44,-1
 512 319 l 1,45,-1
 449 319 l 1,46,-1
 384 319 l 1,47,-1
 384 384 l 1,48,-1
 449 384 l 1,49,-1
 512 384 l 1,42,-1
128 319 m 1,50,-1
 63 319 l 1,51,-1
 0 319 l 1,52,-1
 0 384 l 1,53,-1
 63 384 l 1,54,-1
 128 384 l 1,55,-1
 128 319 l 1,50,-1
831 384 m 1,56,-1
 768 384 l 1,57,-1
 768 449 l 1,58,-1
 831 449 l 1,59,-1
 831 384 l 1,56,-1
575 384 m 1,60,-1
 575 449 l 1,61,-1
 640 449 l 1,62,-1
 640 384 l 1,63,-1
 575 384 l 1,60,-1
768 449 m 1,64,-1
 705 449 l 1,65,-1
 705 512 l 1,66,-1
 768 512 l 1,67,-1
 768 449 l 1,64,-1
575 449 m 1,68,-1
 512 449 l 1,69,-1
 449 449 l 1,70,-1
 384 449 l 1,71,-1
 384 512 l 1,72,-1
 449 512 l 1,73,-1
 512 512 l 1,74,-1
 575 512 l 1,75,-1
 575 449 l 1,68,-1
705 512 m 1,76,-1
 640 512 l 1,77,-1
 640 575 l 1,78,-1
 705 575 l 1,79,-1
 705 512 l 1,76,-1
384 512 m 1,80,-1
 319 512 l 1,81,-1
 319 575 l 1,82,-1
 384 575 l 1,83,-1
 384 512 l 1,80,-1
640 575 m 1,84,-1
 575 575 l 1,85,-1
 512 575 l 1,86,-1
 449 575 l 1,87,-1
 384 575 l 1,88,-1
 384 640 l 1,89,-1
 449 640 l 1,90,-1
 512 640 l 1,91,-1
 575 640 l 1,92,-1
 640 640 l 1,93,-1
 640 575 l 1,84,-1
EndSplineSet
Validated: 5
EndChar

StartChar: n
Encoding: 110 110 47
Width: 896
GlyphClass: 2
Flags: W
LayerCount: 2
Fore
SplineSet
512 256 m 1,0,-1
 575 256 l 1,1,-1
 575 193 l 1,2,-1
 512 193 l 1,3,-1
 449 193 l 1,4,-1
 384 193 l 1,5,-1
 319 193 l 1,6,-1
 256 193 l 1,7,-1
 256 256 l 1,8,-1
 319 256 l 1,9,-1
 384 256 l 1,10,-1
 449 256 l 1,11,-1
 512 256 l 1,0,-1
575 256 m 1,12,-1
 575 319 l 1,13,-1
 640 319 l 1,14,-1
 640 256 l 1,15,-1
 575 256 l 1,12,-1
256 256 m 1,16,-1
 193 256 l 1,17,-1
 128 256 l 1,18,-1
 128 319 l 1,19,-1
 193 319 l 1,20,-1
 256 319 l 1,21,-1
 256 256 l 1,16,-1
831 384 m 1,22,-1
 896 384 l 1,23,-1
 896 319 l 1,24,-1
 831 319 l 1,25,-1
 768 319 l 1,26,-1
 768 384 l 1,27,-1
 831 384 l 1,22,-1
575 319 m 1,28,-1
 512 319 l 1,29,-1
 449 319 l 1,30,-1
 384 319 l 1,31,-1
 384 384 l 1,32,-1
 449 384 l 1,33,-1
 512 384 l 1,34,-1
 575 384 l 1,35,-1
 575 319 l 1,28,-1
128 319 m 1,36,-1
 63 319 l 1,37,-1
 0 319 l 1,38,-1
 0 384 l 1,39,-1
 63 384 l 1,40,-1
 128 384 l 1,41,-1
 128 319 l 1,36,-1
768 384 m 1,42,-1
 705 384 l 1,43,-1
 640 384 l 1,44,-1
 640 449 l 1,45,-1
 705 449 l 1,46,-1
 768 449 l 1,47,-1
 768 384 l 1,42,-1
384 384 m 1,48,-1
 319 384 l 1,49,-1
 319 449 l 1,50,-1
 384 449 l 1,51,-1
 384 384 l 1,48,-1
640 449 m 1,52,-1
 575 449 l 1,53,-1
 512 449 l 1,54,-1
 449 449 l 1,55,-1
 384 449 l 1,56,-1
 384 512 l 1,57,-1
 449 512 l 1,58,-1
 512 512 l 1,59,-1
 575 512 l 1,60,-1
 640 512 l 1,61,-1
 640 449 l 1,52,-1
EndSplineSet
Validated: 5
EndChar

StartChar: o
Encoding: 111 111 48
Width: 0
GlyphClass: 2
Flags: W
LayerCount: 2
Fore
SplineSet
-384 -408 m 1,0,-1
 -384 -344 l 1,1,-1
 -449 -344 l 1,2,-1
 -449 -408 l 1,3,-1
 -384 -408 l 1,0,-1
-449 -344 m 1,4,-1
 -449 -280 l 1,5,-1
 -512 -280 l 1,6,-1
 -512 -344 l 1,7,-1
 -449 -344 l 1,4,-1
-384 -344 m 1,8,-1
 -319 -344 l 1,9,-1
 -319 -280 l 1,10,-1
 -384 -280 l 1,11,-1
 -384 -344 l 1,8,-1
-512 -280 m 1,12,-1
 -512 -216 l 1,13,-1
 -575 -216 l 1,14,-1
 -575 -280 l 1,15,-1
 -512 -280 l 1,12,-1
-319 -280 m 1,16,-1
 -256 -280 l 1,17,-1
 -256 -216 l 1,18,-1
 -319 -216 l 1,19,-1
 -319 -280 l 1,16,-1
-512 -216 m 1,20,-1
 -449 -216 l 1,21,-1
 -449 -152 l 1,22,-1
 -512 -152 l 1,23,-1
 -512 -216 l 1,20,-1
-319 -216 m 1,24,-1
 -319 -152 l 1,25,-1
 -384 -152 l 1,26,-1
 -384 -216 l 1,27,-1
 -319 -216 l 1,24,-1
-449 -152 m 1,28,-1
 -384 -152 l 1,29,-1
 -384 -88 l 1,30,-1
 -449 -88 l 1,31,-1
 -449 -152 l 1,28,-1
EndSplineSet
Validated: 5
EndChar

StartChar: p
Encoding: 112 112 49
Width: 896
GlyphClass: 2
Flags: W
LayerCount: 2
Fore
SplineSet
831 384 m 1,0,-1
 896 384 l 1,1,-1
 896 319 l 1,2,-1
 831 319 l 1,3,-1
 768 319 l 1,4,-1
 705 319 l 1,5,-1
 640 319 l 1,6,-1
 575 319 l 1,7,-1
 512 319 l 1,8,-1
 449 319 l 1,9,-1
 384 319 l 1,10,-1
 319 319 l 1,11,-1
 256 319 l 1,12,-1
 193 319 l 1,13,-1
 128 319 l 1,14,-1
 63 319 l 1,15,-1
 0 319 l 1,16,-1
 0 384 l 1,17,-1
 63 384 l 1,18,-1
 128 384 l 1,19,-1
 193 384 l 1,20,-1
 256 384 l 1,21,-1
 256 449 l 1,22,-1
 256 512 l 1,23,-1
 256 575 l 1,24,-1
 256 640 l 1,25,-1
 319 640 l 1,26,-1
 384 640 l 1,27,-1
 384 575 l 1,28,-1
 449 575 l 1,29,-1
 449 512 l 1,30,-1
 512 512 l 1,31,-1
 512 449 l 1,32,-1
 449 449 l 1,33,-1
 449 512 l 1,34,-1
 384 512 l 1,35,-1
 384 575 l 1,36,-1
 319 575 l 1,37,-1
 319 512 l 1,38,-1
 319 449 l 1,39,-1
 319 384 l 1,40,-1
 384 384 l 1,41,-1
 449 384 l 1,42,-1
 512 384 l 1,43,-1
 512 449 l 1,44,-1
 575 449 l 1,45,-1
 575 384 l 1,46,-1
 640 384 l 1,47,-1
 705 384 l 1,48,-1
 768 384 l 1,49,-1
 831 384 l 1,0,-1
EndSplineSet
Validated: 5
EndChar

StartChar: r
Encoding: 114 114 50
Width: 896
GlyphClass: 2
Flags: W
LayerCount: 2
Fore
SplineSet
512 128 m 1,0,-1
 575 128 l 1,1,-1
 575 63 l 1,2,-1
 512 63 l 1,3,-1
 449 63 l 1,4,-1
 384 63 l 1,5,-1
 319 63 l 1,6,-1
 256 63 l 1,7,-1
 256 128 l 1,8,-1
 319 128 l 1,9,-1
 384 128 l 1,10,-1
 449 128 l 1,11,-1
 512 128 l 1,0,-1
575 128 m 1,12,-1
 575 193 l 1,13,-1
 640 193 l 1,14,-1
 640 128 l 1,15,-1
 575 128 l 1,12,-1
256 128 m 1,16,-1
 193 128 l 1,17,-1
 193 193 l 1,18,-1
 256 193 l 1,19,-1
 256 128 l 1,16,-1
640 193 m 1,20,-1
 640 256 l 1,21,-1
 705 256 l 1,22,-1
 705 193 l 1,23,-1
 640 193 l 1,20,-1
193 193 m 1,24,-1
 128 193 l 1,25,-1
 128 256 l 1,26,-1
 128 319 l 1,27,-1
 63 319 l 1,28,-1
 0 319 l 1,29,-1
 0 384 l 1,30,-1
 63 384 l 1,31,-1
 128 384 l 1,32,-1
 128 449 l 1,33,-1
 128 512 l 1,34,-1
 193 512 l 1,35,-1
 193 449 l 1,36,-1
 193 384 l 1,37,-1
 256 384 l 1,38,-1
 319 384 l 1,39,-1
 319 449 l 1,40,-1
 319 512 l 1,41,-1
 384 512 l 1,42,-1
 384 449 l 1,43,-1
 384 384 l 1,44,-1
 384 319 l 1,45,-1
 319 319 l 1,46,-1
 256 319 l 1,47,-1
 193 319 l 1,48,-1
 193 256 l 1,49,-1
 193 193 l 1,24,-1
640 256 m 1,50,-1
 575 256 l 1,51,-1
 575 319 l 1,52,-1
 640 319 l 1,53,-1
 640 256 l 1,50,-1
831 384 m 1,54,-1
 896 384 l 1,55,-1
 896 319 l 1,56,-1
 831 319 l 1,57,-1
 768 319 l 1,58,-1
 705 319 l 1,59,-1
 705 384 l 1,60,-1
 768 384 l 1,61,-1
 831 384 l 1,54,-1
575 319 m 1,62,-1
 512 319 l 1,63,-1
 512 384 l 1,64,-1
 575 384 l 1,65,-1
 575 319 l 1,62,-1
705 384 m 1,66,-1
 640 384 l 1,67,-1
 640 449 l 1,68,-1
 705 449 l 1,69,-1
 705 384 l 1,66,-1
512 384 m 1,70,-1
 449 384 l 1,71,-1
 449 449 l 1,72,-1
 512 449 l 1,73,-1
 512 384 l 1,70,-1
640 449 m 1,74,-1
 575 449 l 1,75,-1
 512 449 l 1,76,-1
 512 512 l 1,77,-1
 575 512 l 1,78,-1
 640 512 l 1,79,-1
 640 449 l 1,74,-1
319 512 m 1,80,-1
 256 512 l 1,81,-1
 193 512 l 1,82,-1
 193 575 l 1,83,-1
 256 575 l 1,84,-1
 319 575 l 1,85,-1
 319 512 l 1,80,-1
EndSplineSet
Validated: 5
EndChar

StartChar: s
Encoding: 115 115 51
Width: 896
GlyphClass: 2
Flags: W
LayerCount: 2
Fore
SplineSet
319 193 m 1,0,-1
 384 193 l 1,1,-1
 384 128 l 1,2,-1
 319 128 l 1,3,-1
 256 128 l 1,4,-1
 256 193 l 1,5,-1
 319 193 l 1,0,-1
384 193 m 1,6,-1
 384 256 l 1,7,-1
 449 256 l 1,8,-1
 449 193 l 1,9,-1
 384 193 l 1,6,-1
256 193 m 1,10,-1
 193 193 l 1,11,-1
 193 256 l 1,12,-1
 256 256 l 1,13,-1
 256 193 l 1,10,-1
449 256 m 1,14,-1
 449 319 l 1,15,-1
 449 384 l 1,16,-1
 449 449 l 1,17,-1
 512 449 l 1,18,-1
 512 384 l 1,19,-1
 512 319 l 1,20,-1
 512 256 l 1,21,-1
 449 256 l 1,14,-1
193 256 m 1,22,-1
 128 256 l 1,23,-1
 128 319 l 1,24,-1
 193 319 l 1,25,-1
 193 256 l 1,22,-1
831 384 m 1,26,-1
 896 384 l 1,27,-1
 896 319 l 1,28,-1
 831 319 l 1,29,-1
 768 319 l 1,30,-1
 768 384 l 1,31,-1
 831 384 l 1,26,-1
128 319 m 1,32,-1
 63 319 l 1,33,-1
 0 319 l 1,34,-1
 0 384 l 1,35,-1
 63 384 l 1,36,-1
 128 384 l 1,37,-1
 128 319 l 1,32,-1
768 384 m 1,38,-1
 705 384 l 1,39,-1
 705 449 l 1,40,-1
 705 512 l 1,41,-1
 768 512 l 1,42,-1
 768 449 l 1,43,-1
 768 384 l 1,38,-1
512 449 m 1,44,-1
 512 512 l 1,45,-1
 575 512 l 1,46,-1
 575 449 l 1,47,-1
 512 449 l 1,44,-1
705 512 m 1,48,-1
 640 512 l 1,49,-1
 575 512 l 1,50,-1
 575 575 l 1,51,-1
 640 575 l 1,52,-1
 705 575 l 1,53,-1
 705 512 l 1,48,-1
EndSplineSet
Validated: 5
EndChar

StartChar: t
Encoding: 116 116 52
Width: 896
GlyphClass: 2
Flags: W
LayerCount: 2
Fore
SplineSet
831 384 m 1,0,-1
 896 384 l 1,1,-1
 896 319 l 1,2,-1
 831 319 l 1,3,-1
 768 319 l 1,4,-1
 705 319 l 1,5,-1
 640 319 l 1,6,-1
 575 319 l 1,7,-1
 512 319 l 1,8,-1
 512 384 l 1,9,-1
 575 384 l 1,10,-1
 640 384 l 1,11,-1
 705 384 l 1,12,-1
 768 384 l 1,13,-1
 831 384 l 1,0,-1
193 319 m 1,14,-1
 128 319 l 1,15,-1
 63 319 l 1,16,-1
 0 319 l 1,17,-1
 0 384 l 1,18,-1
 63 384 l 1,19,-1
 128 384 l 1,20,-1
 193 384 l 1,21,-1
 193 449 l 1,22,-1
 193 512 l 1,23,-1
 193 575 l 1,24,-1
 193 640 l 1,25,-1
 193 705 l 1,26,-1
 256 705 l 1,27,-1
 319 705 l 1,28,-1
 319 640 l 1,29,-1
 384 640 l 1,30,-1
 384 575 l 1,31,-1
 384 512 l 1,32,-1
 449 512 l 1,33,-1
 449 449 l 1,34,-1
 512 449 l 1,35,-1
 512 384 l 1,36,-1
 449 384 l 1,37,-1
 449 449 l 1,38,-1
 384 449 l 1,39,-1
 384 512 l 1,40,-1
 319 512 l 1,41,-1
 319 575 l 1,42,-1
 319 640 l 1,43,-1
 256 640 l 1,44,-1
 256 575 l 1,45,-1
 256 512 l 1,46,-1
 256 449 l 1,47,-1
 256 384 l 1,48,-1
 256 319 l 1,49,-1
 193 319 l 1,14,-1
EndSplineSet
Validated: 5
EndChar

StartChar: u
Encoding: 117 117 53
Width: 0
GlyphClass: 2
Flags: W
LayerCount: 2
Fore
SplineSet
-536 -182 m 1,0,-1
 -536 -118 l 1,1,-1
 -600 -118 l 1,2,-1
 -600 -182 l 1,3,-1
 -600 -246 l 1,4,-1
 -536 -246 l 1,5,-1
 -536 -182 l 1,0,-1
-536 -118 m 1,6,-1
 -472 -118 l 1,7,-1
 -408 -118 l 1,8,-1
 -344 -118 l 1,9,-1
 -344 -54 l 1,10,-1
 -408 -54 l 1,11,-1
 -472 -54 l 1,12,-1
 -536 -54 l 1,13,-1
 -536 -118 l 1,6,-1
-536 -246 m 1,14,-1
 -536 -310 l 1,15,-1
 -472 -310 l 1,16,-1
 -408 -310 l 1,17,-1
 -344 -310 l 1,18,-1
 -344 -246 l 1,19,-1
 -408 -246 l 1,20,-1
 -472 -246 l 1,21,-1
 -536 -246 l 1,14,-1
EndSplineSet
Validated: 5
EndChar

StartChar: v
Encoding: 118 118 54
Width: 896
GlyphClass: 2
Flags: W
LayerCount: 2
Fore
SplineSet
449 193 m 1,0,-1
 512 193 l 1,1,-1
 512 128 l 1,2,-1
 449 128 l 1,3,-1
 384 128 l 1,4,-1
 319 128 l 1,5,-1
 319 193 l 1,6,-1
 384 193 l 1,7,-1
 449 193 l 1,0,-1
512 193 m 1,8,-1
 512 256 l 1,9,-1
 575 256 l 1,10,-1
 575 193 l 1,11,-1
 512 193 l 1,8,-1
319 193 m 1,12,-1
 256 193 l 1,13,-1
 256 256 l 1,14,-1
 319 256 l 1,15,-1
 319 193 l 1,12,-1
575 256 m 1,16,-1
 575 319 l 1,17,-1
 640 319 l 1,18,-1
 640 256 l 1,19,-1
 575 256 l 1,16,-1
256 256 m 1,20,-1
 193 256 l 1,21,-1
 128 256 l 1,22,-1
 128 319 l 1,23,-1
 193 319 l 1,24,-1
 256 319 l 1,25,-1
 256 256 l 1,20,-1
831 384 m 1,26,-1
 896 384 l 1,27,-1
 896 319 l 1,28,-1
 831 319 l 1,29,-1
 768 319 l 1,30,-1
 768 384 l 1,31,-1
 831 384 l 1,26,-1
575 319 m 1,32,-1
 512 319 l 1,33,-1
 512 384 l 1,34,-1
 575 384 l 1,35,-1
 575 319 l 1,32,-1
128 319 m 1,36,-1
 63 319 l 1,37,-1
 0 319 l 1,38,-1
 0 384 l 1,39,-1
 63 384 l 1,40,-1
 128 384 l 1,41,-1
 128 319 l 1,36,-1
768 384 m 1,42,-1
 705 384 l 1,43,-1
 705 449 l 1,44,-1
 768 449 l 1,45,-1
 768 384 l 1,42,-1
512 384 m 1,46,-1
 449 384 l 1,47,-1
 384 384 l 1,48,-1
 384 449 l 1,49,-1
 449 449 l 1,50,-1
 512 449 l 1,51,-1
 512 384 l 1,46,-1
705 449 m 1,52,-1
 640 449 l 1,53,-1
 640 512 l 1,54,-1
 705 512 l 1,55,-1
 705 449 l 1,52,-1
384 449 m 1,56,-1
 319 449 l 1,57,-1
 319 512 l 1,58,-1
 319 575 l 1,59,-1
 384 575 l 1,60,-1
 384 512 l 1,61,-1
 384 449 l 1,56,-1
640 512 m 1,62,-1
 575 512 l 1,63,-1
 575 575 l 1,64,-1
 640 575 l 1,65,-1
 640 512 l 1,62,-1
575 575 m 1,66,-1
 512 575 l 1,67,-1
 449 575 l 1,68,-1
 384 575 l 1,69,-1
 384 640 l 1,70,-1
 449 640 l 1,71,-1
 512 640 l 1,72,-1
 575 640 l 1,73,-1
 575 575 l 1,66,-1
EndSplineSet
Validated: 5
EndChar

StartChar: w
Encoding: 119 119 55
Width: 896
GlyphClass: 2
Flags: W
LayerCount: 2
Fore
SplineSet
831 384 m 1,0,-1
 896 384 l 1,1,-1
 896 319 l 1,2,-1
 831 319 l 1,3,-1
 768 319 l 1,4,-1
 705 319 l 1,5,-1
 640 319 l 1,6,-1
 575 319 l 1,7,-1
 512 319 l 1,8,-1
 449 319 l 1,9,-1
 384 319 l 1,10,-1
 319 319 l 1,11,-1
 256 319 l 1,12,-1
 193 319 l 1,13,-1
 128 319 l 1,14,-1
 63 319 l 1,15,-1
 0 319 l 1,16,-1
 0 384 l 1,17,-1
 63 384 l 1,18,-1
 128 384 l 1,19,-1
 193 384 l 1,20,-1
 256 384 l 1,21,-1
 256 449 l 1,22,-1
 319 449 l 1,23,-1
 319 384 l 1,24,-1
 384 384 l 1,25,-1
 449 384 l 1,26,-1
 512 384 l 1,27,-1
 575 384 l 1,28,-1
 575 449 l 1,29,-1
 640 449 l 1,30,-1
 640 384 l 1,31,-1
 705 384 l 1,32,-1
 768 384 l 1,33,-1
 831 384 l 1,0,-1
575 449 m 1,34,-1
 512 449 l 1,35,-1
 449 449 l 1,36,-1
 449 512 l 1,37,-1
 512 512 l 1,38,-1
 575 512 l 1,39,-1
 575 449 l 1,34,-1
256 449 m 1,40,-1
 193 449 l 1,41,-1
 193 512 l 1,42,-1
 193 575 l 1,43,-1
 193 640 l 1,44,-1
 256 640 l 1,45,-1
 256 575 l 1,46,-1
 256 512 l 1,47,-1
 256 449 l 1,40,-1
449 512 m 1,48,-1
 384 512 l 1,49,-1
 384 575 l 1,50,-1
 449 575 l 1,51,-1
 449 512 l 1,48,-1
512 640 m 1,52,-1
 575 640 l 1,53,-1
 575 575 l 1,54,-1
 512 575 l 1,55,-1
 449 575 l 1,56,-1
 449 640 l 1,57,-1
 512 640 l 1,52,-1
575 640 m 1,58,-1
 575 705 l 1,59,-1
 640 705 l 1,60,-1
 640 640 l 1,61,-1
 575 640 l 1,58,-1
256 640 m 1,62,-1
 256 705 l 1,63,-1
 319 705 l 1,64,-1
 319 640 l 1,65,-1
 256 640 l 1,62,-1
575 705 m 1,66,-1
 512 705 l 1,67,-1
 449 705 l 1,68,-1
 384 705 l 1,69,-1
 319 705 l 1,70,-1
 319 768 l 1,71,-1
 384 768 l 1,72,-1
 449 768 l 1,73,-1
 512 768 l 1,74,-1
 575 768 l 1,75,-1
 575 705 l 1,66,-1
EndSplineSet
Validated: 5
EndChar

StartChar: y
Encoding: 121 121 56
Width: 0
GlyphClass: 2
Flags: W
LayerCount: 2
Fore
SplineSet
-346 -182 m 1,0,-1
 -346 -118 l 1,1,-1
 -282 -118 l 1,2,-1
 -282 -182 l 1,3,-1
 -282 -246 l 1,4,-1
 -346 -246 l 1,5,-1
 -346 -182 l 1,0,-1
-346 -118 m 1,6,-1
 -410 -118 l 1,7,-1
 -474 -118 l 1,8,-1
 -538 -118 l 1,9,-1
 -538 -54 l 1,10,-1
 -474 -54 l 1,11,-1
 -410 -54 l 1,12,-1
 -346 -54 l 1,13,-1
 -346 -118 l 1,6,-1
-346 -246 m 1,14,-1
 -346 -310 l 1,15,-1
 -410 -310 l 1,16,-1
 -474 -310 l 1,17,-1
 -538 -310 l 1,18,-1
 -538 -246 l 1,19,-1
 -474 -246 l 1,20,-1
 -410 -246 l 1,21,-1
 -346 -246 l 1,14,-1
EndSplineSet
Validated: 5
EndChar

StartChar: z
Encoding: 122 122 57
Width: 896
GlyphClass: 2
Flags: W
LayerCount: 2
Fore
SplineSet
640 128 m 1,0,-1
 705 128 l 1,1,-1
 705 63 l 1,2,-1
 640 63 l 1,3,-1
 575 63 l 1,4,-1
 575 128 l 1,5,-1
 640 128 l 1,0,-1
705 128 m 1,6,-1
 705 193 l 1,7,-1
 705 256 l 1,8,-1
 705 319 l 1,9,-1
 768 319 l 1,10,-1
 768 256 l 1,11,-1
 768 193 l 1,12,-1
 768 128 l 1,13,-1
 705 128 l 1,6,-1
575 128 m 1,14,-1
 512 128 l 1,15,-1
 512 193 l 1,16,-1
 512 256 l 1,17,-1
 575 256 l 1,18,-1
 575 193 l 1,19,-1
 575 128 l 1,14,-1
512 256 m 1,20,-1
 449 256 l 1,21,-1
 449 319 l 1,22,-1
 449 384 l 1,23,-1
 449 449 l 1,24,-1
 512 449 l 1,25,-1
 512 384 l 1,26,-1
 512 319 l 1,27,-1
 512 256 l 1,20,-1
831 384 m 1,28,-1
 896 384 l 1,29,-1
 896 319 l 1,30,-1
 831 319 l 1,31,-1
 768 319 l 1,32,-1
 768 384 l 1,33,-1
 831 384 l 1,28,-1
128 319 m 1,34,-1
 63 319 l 1,35,-1
 0 319 l 1,36,-1
 0 384 l 1,37,-1
 63 384 l 1,38,-1
 128 384 l 1,39,-1
 128 449 l 1,40,-1
 193 449 l 1,41,-1
 193 384 l 1,42,-1
 193 319 l 1,43,-1
 128 319 l 1,34,-1
449 449 m 1,44,-1
 384 449 l 1,45,-1
 384 512 l 1,46,-1
 384 575 l 1,47,-1
 449 575 l 1,48,-1
 449 512 l 1,49,-1
 449 449 l 1,44,-1
193 449 m 1,50,-1
 193 512 l 1,51,-1
 193 575 l 1,52,-1
 256 575 l 1,53,-1
 256 512 l 1,54,-1
 256 449 l 1,55,-1
 193 449 l 1,50,-1
384 575 m 1,56,-1
 319 575 l 1,57,-1
 256 575 l 1,58,-1
 256 640 l 1,59,-1
 319 640 l 1,60,-1
 384 640 l 1,61,-1
 384 575 l 1,56,-1
EndSplineSet
Validated: 5
EndChar

